M48
; DRILL file {KiCad (6.0.2)} date Sat May  6 01:27:36 2023
; FORMAT={-:-/ absolute / inch / decimal}
; #@! TF.CreationDate,2023-05-06T01:27:36+02:00
; #@! TF.GenerationSoftware,Kicad,Pcbnew,(6.0.2)
; #@! TF.FileFunction,Plated,1,2,PTH
FMAT,2
INCH
; #@! TA.AperFunction,Plated,PTH,ComponentDrill
T1C0.0295
; #@! TA.AperFunction,Plated,PTH,ComponentDrill
T2C0.0315
; #@! TA.AperFunction,Plated,PTH,ComponentDrill
T3C0.0354
; #@! TA.AperFunction,Plated,PTH,ComponentDrill
T4C0.0394
; #@! TA.AperFunction,Plated,PTH,ComponentDrill
T5C0.0433
; #@! TA.AperFunction,Plated,PTH,ComponentDrill
T6C0.1260
%
G90
G05
T1
X8.5417Y-1.3866
X8.6205Y-1.3866
T2
X6.0741Y-2.7854
X6.0741Y-3.1854
X6.3964Y-2.7854
X6.3964Y-3.1854
X6.5906Y-2.024
X6.6906Y-2.124
X6.7187Y-2.7854
X6.7187Y-3.1854
X6.7906Y-2.024
X7.0409Y-2.7854
X7.0409Y-3.1854
X7.1528Y-1.3622
X7.5528Y-1.3622
T3
X7.4594Y-2.7819
X7.4594Y-3.1819
X7.7895Y-2.7819
X7.7895Y-3.1819
X8.1197Y-2.7819
X8.1197Y-3.1819
X8.4498Y-2.7819
X8.4498Y-3.1819
T4
X5.4331Y-1.3907
X5.4331Y-2.2907
X5.5331Y-1.3907
X5.5331Y-2.2907
X5.6331Y-1.3907
X5.6331Y-2.2907
X5.7331Y-1.3907
X5.7331Y-2.2907
X5.8331Y-1.3907
X5.8331Y-2.2907
X5.9331Y-1.3907
X5.9331Y-2.2907
X6.0331Y-1.3907
X6.0331Y-2.2907
X6.1331Y-1.3907
X6.1331Y-2.2907
X6.6622Y-1.5449
X6.9181Y-1.5449
X7.3626Y-1.6018
X7.3626Y-1.7018
X7.3626Y-1.8018
X7.3626Y-1.9018
X7.5028Y-2.0563
X7.6028Y-2.0563
X7.7028Y-2.0563
X7.8028Y-2.0563
X8.0945Y-1.6512
X8.0945Y-1.789
X8.0945Y-2.0693
X8.0945Y-2.2071
X8.1063Y-1.3382
X8.2047Y-1.3382
X8.3031Y-1.3382
X8.9945Y-1.6512
X8.9945Y-2.2071
T5
X5.2189Y-2.9957
X5.2189Y-3.1728
X5.2189Y-3.5862
X5.2189Y-3.7634
X5.2189Y-4.1768
X5.2189Y-4.3539
X5.278Y-2.9957
X5.278Y-3.1728
X5.278Y-3.5862
X5.278Y-3.7634
X5.278Y-4.1768
X5.278Y-4.3539
X5.5339Y-2.9957
X5.5339Y-3.1728
X5.5339Y-3.5862
X5.5339Y-3.7634
X5.5339Y-4.1768
X5.5339Y-4.3539
X5.9055Y-4.4094
X5.9055Y-4.4685
X5.9055Y-4.7244
X6.0827Y-4.4094
X6.0827Y-4.4685
X6.0827Y-4.7244
X6.1071Y-3.622
X6.1071Y-3.6811
X6.1071Y-3.937
X6.2843Y-3.622
X6.2843Y-3.6811
X6.2843Y-3.937
X6.3055Y-4.4094
X6.3055Y-4.4685
X6.3055Y-4.7244
X6.4827Y-4.4094
X6.4827Y-4.4685
X6.4827Y-4.7244
X6.5102Y-3.622
X6.5102Y-3.6811
X6.5102Y-3.937
X6.6874Y-3.622
X6.6874Y-3.6811
X6.6874Y-3.937
X6.7055Y-4.4094
X6.7055Y-4.4685
X6.7055Y-4.7244
X6.8827Y-4.4094
X6.8827Y-4.4685
X6.8827Y-4.7244
X7.1055Y-4.4094
X7.1055Y-4.4685
X7.1055Y-4.7244
X7.2827Y-4.4094
X7.2827Y-4.4685
X7.2827Y-4.7244
X7.3071Y-3.622
X7.3071Y-3.6811
X7.3071Y-3.937
X7.4843Y-3.622
X7.4843Y-3.6811
X7.4843Y-3.937
X7.5055Y-4.4094
X7.5055Y-4.4685
X7.5055Y-4.7244
X7.6827Y-4.4094
X7.6827Y-4.4685
X7.6827Y-4.7244
X7.7102Y-3.622
X7.7102Y-3.6811
X7.7102Y-3.937
X7.8874Y-3.622
X7.8874Y-3.6811
X7.8874Y-3.937
X7.9055Y-4.4094
X7.9055Y-4.4685
X7.9055Y-4.7244
X8.0827Y-4.4094
X8.0827Y-4.4685
X8.0827Y-4.7244
X8.1134Y-3.622
X8.1134Y-3.6811
X8.1134Y-3.937
X8.2906Y-3.622
X8.2906Y-3.6811
X8.2906Y-3.937
X8.3055Y-4.4094
X8.3055Y-4.4685
X8.3055Y-4.7244
X8.4827Y-4.4094
X8.4827Y-4.4685
X8.4827Y-4.7244
X8.7055Y-4.4094
X8.7055Y-4.4685
X8.7055Y-4.7244
X8.8827Y-4.4094
X8.8827Y-4.4685
X8.8827Y-4.7244
T6
X5.2512Y-4.632
X5.3012Y-1.5721
X5.322Y-2.5197
X5.9819Y-2.5197
X8.8512Y-2.5197
X8.8859Y-1.414
X8.8859Y-4.1952
T0
M30
