%TF.GenerationSoftware,KiCad,Pcbnew,(6.0.2)*%
%TF.CreationDate,2023-04-25T14:42:27+02:00*%
%TF.ProjectId,piano,7069616e-6f2e-46b6-9963-61645f706362,0.2*%
%TF.SameCoordinates,Original*%
%TF.FileFunction,Soldermask,Bot*%
%TF.FilePolarity,Negative*%
%FSLAX46Y46*%
G04 Gerber Fmt 4.6, Leading zero omitted, Abs format (unit mm)*
G04 Created by KiCad (PCBNEW (6.0.2)) date 2023-04-25 14:42:27*
%MOMM*%
%LPD*%
G01*
G04 APERTURE LIST*
G04 Aperture macros list*
%AMRoundRect*
0 Rectangle with rounded corners*
0 $1 Rounding radius*
0 $2 $3 $4 $5 $6 $7 $8 $9 X,Y pos of 4 corners*
0 Add a 4 corners polygon primitive as box body*
4,1,4,$2,$3,$4,$5,$6,$7,$8,$9,$2,$3,0*
0 Add four circle primitives for the rounded corners*
1,1,$1+$1,$2,$3*
1,1,$1+$1,$4,$5*
1,1,$1+$1,$6,$7*
1,1,$1+$1,$8,$9*
0 Add four rect primitives between the rounded corners*
20,1,$1+$1,$2,$3,$4,$5,0*
20,1,$1+$1,$4,$5,$6,$7,0*
20,1,$1+$1,$6,$7,$8,$9,0*
20,1,$1+$1,$8,$9,$2,$3,0*%
G04 Aperture macros list end*
%ADD10R,1.800000X1.800000*%
%ADD11O,1.800000X1.800000*%
%ADD12R,2.000000X2.000000*%
%ADD13C,2.000000*%
%ADD14C,1.600000*%
%ADD15O,1.600000X1.600000*%
%ADD16C,4.000000*%
%ADD17C,1.700000*%
%ADD18O,1.700000X1.700000*%
%ADD19R,1.050000X1.500000*%
%ADD20O,1.050000X1.500000*%
%ADD21O,1.600000X2.000000*%
%ADD22RoundRect,0.250000X-0.350000X-0.625000X0.350000X-0.625000X0.350000X0.625000X-0.350000X0.625000X0*%
%ADD23O,1.200000X1.750000*%
G04 APERTURE END LIST*
D10*
%TO.C,D1*%
X214626094Y-70660000D03*
D11*
X214626094Y-80820000D03*
%TD*%
D10*
%TO.C,D2*%
X206240000Y-70660000D03*
D11*
X206240000Y-80820000D03*
%TD*%
D10*
%TO.C,D4*%
X189467812Y-70660000D03*
D11*
X189467812Y-80820000D03*
%TD*%
D10*
%TO.C,D3*%
X197853906Y-70660000D03*
D11*
X197853906Y-80820000D03*
%TD*%
D12*
%TO.C,BZ1*%
X169220000Y-39240000D03*
D13*
X175720000Y-39240000D03*
%TD*%
%TO.C,SW-7*%
X221120000Y-120000000D03*
X221120000Y-112000000D03*
X221120000Y-113500000D03*
X225620000Y-120000000D03*
X225620000Y-112000000D03*
X225620000Y-113500000D03*
%TD*%
%TO.C,SW-0*%
X150000000Y-120000000D03*
X150000000Y-112000000D03*
X150000000Y-113500000D03*
X154500000Y-120000000D03*
X154500000Y-112000000D03*
X154500000Y-113500000D03*
%TD*%
%TO.C,SW-8*%
X159620000Y-93500000D03*
X159620000Y-92000000D03*
X159620000Y-100000000D03*
X155120000Y-93500000D03*
X155120000Y-92000000D03*
X155120000Y-100000000D03*
%TD*%
%TO.C,SW-1*%
X160160000Y-120000000D03*
X160160000Y-112000000D03*
X160160000Y-113500000D03*
X164660000Y-120000000D03*
X164660000Y-112000000D03*
X164660000Y-113500000D03*
%TD*%
%TO.C,SW-A1*%
X185600000Y-100000000D03*
X185600000Y-92000000D03*
X185600000Y-93500000D03*
X190100000Y-100000000D03*
X190100000Y-92000000D03*
X190100000Y-93500000D03*
%TD*%
%TO.C,SW-3*%
X180480000Y-120000000D03*
X180480000Y-112000000D03*
X180480000Y-113500000D03*
X184980000Y-120000000D03*
X184980000Y-112000000D03*
X184980000Y-113500000D03*
%TD*%
%TO.C,SW-5*%
X200800000Y-120000000D03*
X200800000Y-112000000D03*
X200800000Y-113500000D03*
X205300000Y-120000000D03*
X205300000Y-112000000D03*
X205300000Y-113500000D03*
%TD*%
%TO.C,SW-D1*%
X140560000Y-110590000D03*
X132560000Y-110590000D03*
X134060000Y-110590000D03*
X140560000Y-106090000D03*
X132560000Y-106090000D03*
X134060000Y-106090000D03*
%TD*%
%TO.C,SW-6*%
X210960000Y-120000000D03*
X210960000Y-112000000D03*
X210960000Y-113500000D03*
X215460000Y-120000000D03*
X215460000Y-112000000D03*
X215460000Y-113500000D03*
%TD*%
%TO.C,SW-2*%
X170320000Y-120000000D03*
X170320000Y-112000000D03*
X170320000Y-113500000D03*
X174820000Y-120000000D03*
X174820000Y-112000000D03*
X174820000Y-113500000D03*
%TD*%
%TO.C,SW-F1*%
X140560000Y-80590000D03*
X132560000Y-80590000D03*
X134060000Y-80590000D03*
X140560000Y-76090000D03*
X132560000Y-76090000D03*
X134060000Y-76090000D03*
%TD*%
%TO.C,SW-B1*%
X195840000Y-100000000D03*
X195840000Y-92000000D03*
X195840000Y-93500000D03*
X200340000Y-100000000D03*
X200340000Y-92000000D03*
X200340000Y-93500000D03*
%TD*%
%TO.C,SW-4*%
X190640000Y-120000000D03*
X190640000Y-112000000D03*
X190640000Y-113500000D03*
X195140000Y-120000000D03*
X195140000Y-112000000D03*
X195140000Y-113500000D03*
%TD*%
%TO.C,SW-9*%
X165360000Y-100000000D03*
X165360000Y-92000000D03*
X165360000Y-93500000D03*
X169860000Y-100000000D03*
X169860000Y-92000000D03*
X169860000Y-93500000D03*
%TD*%
%TO.C,SW-C1*%
X206080000Y-100000000D03*
X206080000Y-92000000D03*
X206080000Y-93500000D03*
X210580000Y-100000000D03*
X210580000Y-92000000D03*
X210580000Y-93500000D03*
%TD*%
%TO.C,SW-E1*%
X140560000Y-95590000D03*
X132560000Y-95590000D03*
X134060000Y-95590000D03*
X140560000Y-91090000D03*
X132560000Y-91090000D03*
X134060000Y-91090000D03*
%TD*%
D14*
%TO.C,R1*%
X178840000Y-70750000D03*
D15*
X178840000Y-80910000D03*
%TD*%
D16*
%TO.C,*%
X135180000Y-64000000D03*
%TD*%
D17*
%TO.C,J3*%
X187010183Y-40685172D03*
D18*
X187010183Y-43225172D03*
X187010183Y-45765172D03*
X187010183Y-48305172D03*
%TD*%
D14*
%TO.C,R5*%
X181680000Y-34600000D03*
D15*
X191840000Y-34600000D03*
%TD*%
D19*
%TO.C,Q1*%
X169360000Y-51110000D03*
D20*
X168090000Y-51110000D03*
X166820000Y-51110000D03*
%TD*%
D16*
%TO.C,*%
X225702000Y-106558000D03*
%TD*%
D12*
%TO.C,U1*%
X155780000Y-35325000D03*
D21*
X153240000Y-35325000D03*
X150700000Y-35325000D03*
X148160000Y-35325000D03*
X145620000Y-35325000D03*
X143080000Y-35325000D03*
X140540000Y-35325000D03*
X138000000Y-35325000D03*
X138000000Y-58185000D03*
X140540000Y-58185000D03*
X143080000Y-58185000D03*
X145620000Y-58185000D03*
X148160000Y-58185000D03*
X150700000Y-58185000D03*
X153240000Y-58185000D03*
X155780000Y-58185000D03*
%TD*%
D22*
%TO.C,J1*%
X216960000Y-35220000D03*
D23*
X218960000Y-35220000D03*
%TD*%
D14*
%TO.C,R4*%
X154281717Y-70750000D03*
D15*
X154281717Y-80910000D03*
%TD*%
D16*
%TO.C,*%
X225702000Y-35916000D03*
%TD*%
%TO.C,*%
X133380000Y-117652000D03*
%TD*%
%TO.C,*%
X134650000Y-39932000D03*
%TD*%
D14*
%TO.C,R2*%
X170653905Y-70750000D03*
D15*
X170653905Y-80910000D03*
%TD*%
D14*
%TO.C,R3*%
X162467811Y-70750000D03*
D15*
X162467811Y-80910000D03*
%TD*%
D16*
%TO.C,REF\u002A\u002A*%
X151940000Y-64000000D03*
%TD*%
%TO.C,REF\u002A\u002A*%
X224820000Y-64000000D03*
%TD*%
D13*
%TO.C,SW1*%
X205900000Y-33990000D03*
X208400000Y-33990000D03*
X210900000Y-33990000D03*
%TD*%
D17*
%TO.C,J2*%
X198190000Y-52230000D03*
D18*
X195650000Y-52230000D03*
X193110000Y-52230000D03*
X190570000Y-52230000D03*
%TD*%
D12*
%TO.C,U2*%
X228460000Y-41940000D03*
X228460000Y-56060000D03*
X205600000Y-41940000D03*
X205600000Y-45440000D03*
X205600000Y-52560000D03*
X205600000Y-56060000D03*
%TD*%
M02*
