%TF.GenerationSoftware,KiCad,Pcbnew,(6.0.2)*%
%TF.CreationDate,2023-04-06T18:34:50+02:00*%
%TF.ProjectId,piano,7069616e-6f2e-46b6-9963-61645f706362,rev?*%
%TF.SameCoordinates,Original*%
%TF.FileFunction,Legend,Top*%
%TF.FilePolarity,Positive*%
%FSLAX46Y46*%
G04 Gerber Fmt 4.6, Leading zero omitted, Abs format (unit mm)*
G04 Created by KiCad (PCBNEW (6.0.2)) date 2023-04-06 18:34:50*
%MOMM*%
%LPD*%
G01*
G04 APERTURE LIST*
%ADD10C,0.150000*%
%ADD11C,0.300000*%
%ADD12C,0.120000*%
G04 APERTURE END LIST*
D10*
X181445047Y-47151809D02*
X181445047Y-45551809D01*
X181826000Y-45551809D01*
X182054571Y-45628000D01*
X182206952Y-45780380D01*
X182283142Y-45932761D01*
X182359333Y-46237523D01*
X182359333Y-46466095D01*
X182283142Y-46770857D01*
X182206952Y-46923238D01*
X182054571Y-47075619D01*
X181826000Y-47151809D01*
X181445047Y-47151809D01*
X183806952Y-45551809D02*
X183045047Y-45551809D01*
X182968857Y-46313714D01*
X183045047Y-46237523D01*
X183197428Y-46161333D01*
X183578380Y-46161333D01*
X183730761Y-46237523D01*
X183806952Y-46313714D01*
X183883142Y-46466095D01*
X183883142Y-46847047D01*
X183806952Y-46999428D01*
X183730761Y-47075619D01*
X183578380Y-47151809D01*
X183197428Y-47151809D01*
X183045047Y-47075619D01*
X182968857Y-46999428D01*
X181445047Y-49727809D02*
X181445047Y-48127809D01*
X181826000Y-48127809D01*
X182054571Y-48204000D01*
X182206952Y-48356380D01*
X182283142Y-48508761D01*
X182359333Y-48813523D01*
X182359333Y-49042095D01*
X182283142Y-49346857D01*
X182206952Y-49499238D01*
X182054571Y-49651619D01*
X181826000Y-49727809D01*
X181445047Y-49727809D01*
X183730761Y-48127809D02*
X183426000Y-48127809D01*
X183273619Y-48204000D01*
X183197428Y-48280190D01*
X183045047Y-48508761D01*
X182968857Y-48813523D01*
X182968857Y-49423047D01*
X183045047Y-49575428D01*
X183121238Y-49651619D01*
X183273619Y-49727809D01*
X183578380Y-49727809D01*
X183730761Y-49651619D01*
X183806952Y-49575428D01*
X183883142Y-49423047D01*
X183883142Y-49042095D01*
X183806952Y-48889714D01*
X183730761Y-48813523D01*
X183578380Y-48737333D01*
X183273619Y-48737333D01*
X183121238Y-48813523D01*
X183045047Y-48889714D01*
X182968857Y-49042095D01*
X181445047Y-52303809D02*
X181445047Y-50703809D01*
X181826000Y-50703809D01*
X182054571Y-50780000D01*
X182206952Y-50932380D01*
X182283142Y-51084761D01*
X182359333Y-51389523D01*
X182359333Y-51618095D01*
X182283142Y-51922857D01*
X182206952Y-52075238D01*
X182054571Y-52227619D01*
X181826000Y-52303809D01*
X181445047Y-52303809D01*
X182892666Y-50703809D02*
X183959333Y-50703809D01*
X183273619Y-52303809D01*
X181445047Y-54879809D02*
X181445047Y-53279809D01*
X181826000Y-53279809D01*
X182054571Y-53356000D01*
X182206952Y-53508380D01*
X182283142Y-53660761D01*
X182359333Y-53965523D01*
X182359333Y-54194095D01*
X182283142Y-54498857D01*
X182206952Y-54651238D01*
X182054571Y-54803619D01*
X181826000Y-54879809D01*
X181445047Y-54879809D01*
X183273619Y-53965523D02*
X183121238Y-53889333D01*
X183045047Y-53813142D01*
X182968857Y-53660761D01*
X182968857Y-53584571D01*
X183045047Y-53432190D01*
X183121238Y-53356000D01*
X183273619Y-53279809D01*
X183578380Y-53279809D01*
X183730761Y-53356000D01*
X183806952Y-53432190D01*
X183883142Y-53584571D01*
X183883142Y-53660761D01*
X183806952Y-53813142D01*
X183730761Y-53889333D01*
X183578380Y-53965523D01*
X183273619Y-53965523D01*
X183121238Y-54041714D01*
X183045047Y-54117904D01*
X182968857Y-54270285D01*
X182968857Y-54575047D01*
X183045047Y-54727428D01*
X183121238Y-54803619D01*
X183273619Y-54879809D01*
X183578380Y-54879809D01*
X183730761Y-54803619D01*
X183806952Y-54727428D01*
X183883142Y-54575047D01*
X183883142Y-54270285D01*
X183806952Y-54117904D01*
X183730761Y-54041714D01*
X183578380Y-53965523D01*
X196688190Y-59779047D02*
X198288190Y-59779047D01*
X198288190Y-60160000D01*
X198212000Y-60388571D01*
X198059619Y-60540952D01*
X197907238Y-60617142D01*
X197602476Y-60693333D01*
X197373904Y-60693333D01*
X197069142Y-60617142D01*
X196916761Y-60540952D01*
X196764380Y-60388571D01*
X196688190Y-60160000D01*
X196688190Y-59779047D01*
X196688190Y-62217142D02*
X196688190Y-61302857D01*
X196688190Y-61760000D02*
X198288190Y-61760000D01*
X198059619Y-61607619D01*
X197907238Y-61455238D01*
X197831047Y-61302857D01*
X194112190Y-59779047D02*
X195712190Y-59779047D01*
X195712190Y-60160000D01*
X195636000Y-60388571D01*
X195483619Y-60540952D01*
X195331238Y-60617142D01*
X195026476Y-60693333D01*
X194797904Y-60693333D01*
X194493142Y-60617142D01*
X194340761Y-60540952D01*
X194188380Y-60388571D01*
X194112190Y-60160000D01*
X194112190Y-59779047D01*
X195559809Y-61302857D02*
X195636000Y-61379047D01*
X195712190Y-61531428D01*
X195712190Y-61912380D01*
X195636000Y-62064761D01*
X195559809Y-62140952D01*
X195407428Y-62217142D01*
X195255047Y-62217142D01*
X195026476Y-62140952D01*
X194112190Y-61226666D01*
X194112190Y-62217142D01*
X191536190Y-59779047D02*
X193136190Y-59779047D01*
X193136190Y-60160000D01*
X193060000Y-60388571D01*
X192907619Y-60540952D01*
X192755238Y-60617142D01*
X192450476Y-60693333D01*
X192221904Y-60693333D01*
X191917142Y-60617142D01*
X191764761Y-60540952D01*
X191612380Y-60388571D01*
X191536190Y-60160000D01*
X191536190Y-59779047D01*
X193136190Y-61226666D02*
X193136190Y-62217142D01*
X192526666Y-61683809D01*
X192526666Y-61912380D01*
X192450476Y-62064761D01*
X192374285Y-62140952D01*
X192221904Y-62217142D01*
X191840952Y-62217142D01*
X191688571Y-62140952D01*
X191612380Y-62064761D01*
X191536190Y-61912380D01*
X191536190Y-61455238D01*
X191612380Y-61302857D01*
X191688571Y-61226666D01*
X188960190Y-59779047D02*
X190560190Y-59779047D01*
X190560190Y-60160000D01*
X190484000Y-60388571D01*
X190331619Y-60540952D01*
X190179238Y-60617142D01*
X189874476Y-60693333D01*
X189645904Y-60693333D01*
X189341142Y-60617142D01*
X189188761Y-60540952D01*
X189036380Y-60388571D01*
X188960190Y-60160000D01*
X188960190Y-59779047D01*
X190026857Y-62064761D02*
X188960190Y-62064761D01*
X190636380Y-61683809D02*
X189493523Y-61302857D01*
X189493523Y-62293333D01*
D11*
X189378952Y-45811071D02*
X188812285Y-45811071D01*
X188812285Y-46701547D02*
X188812285Y-45001547D01*
X189621809Y-45001547D01*
X191564666Y-45811071D02*
X192131333Y-45811071D01*
X192374190Y-46701547D02*
X191564666Y-46701547D01*
X191564666Y-45001547D01*
X192374190Y-45001547D01*
X194398000Y-46701547D02*
X194398000Y-45001547D01*
X194802761Y-45001547D01*
X195045619Y-45082500D01*
X195207523Y-45244404D01*
X195288476Y-45406309D01*
X195369428Y-45730119D01*
X195369428Y-45972976D01*
X195288476Y-46296785D01*
X195207523Y-46458690D01*
X195045619Y-46620595D01*
X194802761Y-46701547D01*
X194398000Y-46701547D01*
X198364666Y-46539642D02*
X198283714Y-46620595D01*
X198040857Y-46701547D01*
X197878952Y-46701547D01*
X197636095Y-46620595D01*
X197474190Y-46458690D01*
X197393238Y-46296785D01*
X197312285Y-45972976D01*
X197312285Y-45730119D01*
X197393238Y-45406309D01*
X197474190Y-45244404D01*
X197636095Y-45082500D01*
X197878952Y-45001547D01*
X198040857Y-45001547D01*
X198283714Y-45082500D01*
X198364666Y-45163452D01*
X189378952Y-48548071D02*
X189621809Y-48629023D01*
X189702761Y-48709976D01*
X189783714Y-48871880D01*
X189783714Y-49114738D01*
X189702761Y-49276642D01*
X189621809Y-49357595D01*
X189459904Y-49438547D01*
X188812285Y-49438547D01*
X188812285Y-47738547D01*
X189378952Y-47738547D01*
X189540857Y-47819500D01*
X189621809Y-47900452D01*
X189702761Y-48062357D01*
X189702761Y-48224261D01*
X189621809Y-48386166D01*
X189540857Y-48467119D01*
X189378952Y-48548071D01*
X188812285Y-48548071D01*
X191726571Y-48952833D02*
X192536095Y-48952833D01*
X191564666Y-49438547D02*
X192131333Y-47738547D01*
X192698000Y-49438547D01*
X194640857Y-49438547D02*
X194964666Y-49438547D01*
X195126571Y-49357595D01*
X195207523Y-49276642D01*
X195369428Y-49033785D01*
X195450380Y-48709976D01*
X195450380Y-48062357D01*
X195369428Y-47900452D01*
X195288476Y-47819500D01*
X195126571Y-47738547D01*
X194802761Y-47738547D01*
X194640857Y-47819500D01*
X194559904Y-47900452D01*
X194478952Y-48062357D01*
X194478952Y-48467119D01*
X194559904Y-48629023D01*
X194640857Y-48709976D01*
X194802761Y-48790928D01*
X195126571Y-48790928D01*
X195288476Y-48709976D01*
X195369428Y-48629023D01*
X195450380Y-48467119D01*
X197717047Y-48467119D02*
X197555142Y-48386166D01*
X197474190Y-48305214D01*
X197393238Y-48143309D01*
X197393238Y-48062357D01*
X197474190Y-47900452D01*
X197555142Y-47819500D01*
X197717047Y-47738547D01*
X198040857Y-47738547D01*
X198202761Y-47819500D01*
X198283714Y-47900452D01*
X198364666Y-48062357D01*
X198364666Y-48143309D01*
X198283714Y-48305214D01*
X198202761Y-48386166D01*
X198040857Y-48467119D01*
X197717047Y-48467119D01*
X197555142Y-48548071D01*
X197474190Y-48629023D01*
X197393238Y-48790928D01*
X197393238Y-49114738D01*
X197474190Y-49276642D01*
X197555142Y-49357595D01*
X197717047Y-49438547D01*
X198040857Y-49438547D01*
X198202761Y-49357595D01*
X198283714Y-49276642D01*
X198364666Y-49114738D01*
X198364666Y-48790928D01*
X198283714Y-48629023D01*
X198202761Y-48548071D01*
X198040857Y-48467119D01*
X188609904Y-50475547D02*
X189743238Y-50475547D01*
X189014666Y-52175547D01*
X192414666Y-50475547D02*
X192090857Y-50475547D01*
X191928952Y-50556500D01*
X191848000Y-50637452D01*
X191686095Y-50880309D01*
X191605142Y-51204119D01*
X191605142Y-51851738D01*
X191686095Y-52013642D01*
X191767047Y-52094595D01*
X191928952Y-52175547D01*
X192252761Y-52175547D01*
X192414666Y-52094595D01*
X192495619Y-52013642D01*
X192576571Y-51851738D01*
X192576571Y-51446976D01*
X192495619Y-51285071D01*
X192414666Y-51204119D01*
X192252761Y-51123166D01*
X191928952Y-51123166D01*
X191767047Y-51204119D01*
X191686095Y-51285071D01*
X191605142Y-51446976D01*
X195409904Y-50475547D02*
X194600380Y-50475547D01*
X194519428Y-51285071D01*
X194600380Y-51204119D01*
X194762285Y-51123166D01*
X195167047Y-51123166D01*
X195328952Y-51204119D01*
X195409904Y-51285071D01*
X195490857Y-51446976D01*
X195490857Y-51851738D01*
X195409904Y-52013642D01*
X195328952Y-52094595D01*
X195167047Y-52175547D01*
X194762285Y-52175547D01*
X194600380Y-52094595D01*
X194519428Y-52013642D01*
X198243238Y-51042214D02*
X198243238Y-52175547D01*
X197838476Y-50394595D02*
X197433714Y-51608880D01*
X198486095Y-51608880D01*
X188609904Y-53212547D02*
X189662285Y-53212547D01*
X189095619Y-53860166D01*
X189338476Y-53860166D01*
X189500380Y-53941119D01*
X189581333Y-54022071D01*
X189662285Y-54183976D01*
X189662285Y-54588738D01*
X189581333Y-54750642D01*
X189500380Y-54831595D01*
X189338476Y-54912547D01*
X188852761Y-54912547D01*
X188690857Y-54831595D01*
X188609904Y-54750642D01*
X191605142Y-53374452D02*
X191686095Y-53293500D01*
X191848000Y-53212547D01*
X192252761Y-53212547D01*
X192414666Y-53293500D01*
X192495619Y-53374452D01*
X192576571Y-53536357D01*
X192576571Y-53698261D01*
X192495619Y-53941119D01*
X191524190Y-54912547D01*
X192576571Y-54912547D01*
X195490857Y-54912547D02*
X194519428Y-54912547D01*
X195005142Y-54912547D02*
X195005142Y-53212547D01*
X194843238Y-53455404D01*
X194681333Y-53617309D01*
X194519428Y-53698261D01*
X197838476Y-53212547D02*
X198000380Y-53212547D01*
X198162285Y-53293500D01*
X198243238Y-53374452D01*
X198324190Y-53536357D01*
X198405142Y-53860166D01*
X198405142Y-54264928D01*
X198324190Y-54588738D01*
X198243238Y-54750642D01*
X198162285Y-54831595D01*
X198000380Y-54912547D01*
X197838476Y-54912547D01*
X197676571Y-54831595D01*
X197595619Y-54750642D01*
X197514666Y-54588738D01*
X197433714Y-54264928D01*
X197433714Y-53860166D01*
X197514666Y-53536357D01*
X197595619Y-53374452D01*
X197676571Y-53293500D01*
X197838476Y-53212547D01*
X223007071Y-95602714D02*
X224007071Y-95245571D01*
X223007071Y-94888428D01*
X222507071Y-94031285D02*
X222507071Y-93888428D01*
X222578500Y-93745571D01*
X222649928Y-93674142D01*
X222792785Y-93602714D01*
X223078500Y-93531285D01*
X223435642Y-93531285D01*
X223721357Y-93602714D01*
X223864214Y-93674142D01*
X223935642Y-93745571D01*
X224007071Y-93888428D01*
X224007071Y-94031285D01*
X223935642Y-94174142D01*
X223864214Y-94245571D01*
X223721357Y-94317000D01*
X223435642Y-94388428D01*
X223078500Y-94388428D01*
X222792785Y-94317000D01*
X222649928Y-94245571D01*
X222578500Y-94174142D01*
X222507071Y-94031285D01*
X223864214Y-92888428D02*
X223935642Y-92817000D01*
X224007071Y-92888428D01*
X223935642Y-92959857D01*
X223864214Y-92888428D01*
X224007071Y-92888428D01*
X224007071Y-91388428D02*
X224007071Y-92245571D01*
X224007071Y-91817000D02*
X222507071Y-91817000D01*
X222721357Y-91959857D01*
X222864214Y-92102714D01*
X222935642Y-92245571D01*
X226279214Y-95459857D02*
X226350642Y-95388428D01*
X226422071Y-95459857D01*
X226350642Y-95531285D01*
X226279214Y-95459857D01*
X226422071Y-95459857D01*
X225493500Y-95459857D02*
X225564928Y-95388428D01*
X225636357Y-95459857D01*
X225564928Y-95531285D01*
X225493500Y-95459857D01*
X225636357Y-95459857D01*
X224850642Y-93674142D02*
X226779214Y-94959857D01*
X224850642Y-92102714D02*
X226779214Y-93388428D01*
X226350642Y-91674142D02*
X226422071Y-91531285D01*
X226422071Y-91245571D01*
X226350642Y-91102714D01*
X226207785Y-91031285D01*
X226136357Y-91031285D01*
X225993500Y-91102714D01*
X225922071Y-91245571D01*
X225922071Y-91459857D01*
X225850642Y-91602714D01*
X225707785Y-91674142D01*
X225636357Y-91674142D01*
X225493500Y-91602714D01*
X225422071Y-91459857D01*
X225422071Y-91245571D01*
X225493500Y-91102714D01*
X225422071Y-89745571D02*
X226422071Y-89745571D01*
X225422071Y-90388428D02*
X226207785Y-90388428D01*
X226350642Y-90317000D01*
X226422071Y-90174142D01*
X226422071Y-89959857D01*
X226350642Y-89817000D01*
X226279214Y-89745571D01*
X226422071Y-89031285D02*
X225422071Y-89031285D01*
X224922071Y-89031285D02*
X224993500Y-89102714D01*
X225064928Y-89031285D01*
X224993500Y-88959857D01*
X224922071Y-89031285D01*
X225064928Y-89031285D01*
X226279214Y-88317000D02*
X226350642Y-88245571D01*
X226422071Y-88317000D01*
X226350642Y-88388428D01*
X226279214Y-88317000D01*
X226422071Y-88317000D01*
X226422071Y-87388428D02*
X226350642Y-87531285D01*
X226207785Y-87602714D01*
X224922071Y-87602714D01*
X226422071Y-86817000D02*
X225422071Y-86817000D01*
X224922071Y-86817000D02*
X224993500Y-86888428D01*
X225064928Y-86817000D01*
X224993500Y-86745571D01*
X224922071Y-86817000D01*
X225064928Y-86817000D01*
D10*
%TO.C,D1*%
X152085712Y-78198095D02*
X151085712Y-78198095D01*
X151085712Y-77960000D01*
X151133332Y-77817142D01*
X151228570Y-77721904D01*
X151323808Y-77674285D01*
X151514284Y-77626666D01*
X151657141Y-77626666D01*
X151847617Y-77674285D01*
X151942855Y-77721904D01*
X152038093Y-77817142D01*
X152085712Y-77960000D01*
X152085712Y-78198095D01*
X152085712Y-76674285D02*
X152085712Y-77245714D01*
X152085712Y-76960000D02*
X151085712Y-76960000D01*
X151228570Y-77055238D01*
X151323808Y-77150476D01*
X151371427Y-77245714D01*
X151515712Y-72641904D02*
X150515712Y-72641904D01*
X151515712Y-72070476D02*
X150944284Y-72499047D01*
X150515712Y-72070476D02*
X151087141Y-72641904D01*
%TO.C,R1*%
X172686432Y-57052380D02*
X172353099Y-56576190D01*
X172115003Y-57052380D02*
X172115003Y-56052380D01*
X172495956Y-56052380D01*
X172591194Y-56100000D01*
X172638813Y-56147619D01*
X172686432Y-56242857D01*
X172686432Y-56385714D01*
X172638813Y-56480952D01*
X172591194Y-56528571D01*
X172495956Y-56576190D01*
X172115003Y-56576190D01*
X173638813Y-57052380D02*
X173067384Y-57052380D01*
X173353099Y-57052380D02*
X173353099Y-56052380D01*
X173257860Y-56195238D01*
X173162622Y-56290476D01*
X173067384Y-56338095D01*
%TO.C,SW9*%
X163020952Y-96345238D02*
X162973333Y-96440476D01*
X162925714Y-96488095D01*
X162830476Y-96535714D01*
X162782857Y-96535714D01*
X162687619Y-96488095D01*
X162640000Y-96440476D01*
X162592380Y-96345238D01*
X162592380Y-96154761D01*
X162640000Y-96059523D01*
X162687619Y-96011904D01*
X162782857Y-95964285D01*
X162830476Y-95964285D01*
X162925714Y-96011904D01*
X162973333Y-96059523D01*
X163020952Y-96154761D01*
X163020952Y-96345238D01*
X163068571Y-96440476D01*
X163116190Y-96488095D01*
X163211428Y-96535714D01*
X163401904Y-96535714D01*
X163497142Y-96488095D01*
X163544761Y-96440476D01*
X163592380Y-96345238D01*
X163592380Y-96154761D01*
X163544761Y-96059523D01*
X163497142Y-96011904D01*
X163401904Y-95964285D01*
X163211428Y-95964285D01*
X163116190Y-96011904D01*
X163068571Y-96059523D01*
X163020952Y-96154761D01*
%TO.C,D2*%
X161681268Y-78198095D02*
X160681268Y-78198095D01*
X160681268Y-77960000D01*
X160728888Y-77817142D01*
X160824126Y-77721904D01*
X160919364Y-77674285D01*
X161109840Y-77626666D01*
X161252697Y-77626666D01*
X161443173Y-77674285D01*
X161538411Y-77721904D01*
X161633649Y-77817142D01*
X161681268Y-77960000D01*
X161681268Y-78198095D01*
X160776507Y-77245714D02*
X160728888Y-77198095D01*
X160681268Y-77102857D01*
X160681268Y-76864761D01*
X160728888Y-76769523D01*
X160776507Y-76721904D01*
X160871745Y-76674285D01*
X160966983Y-76674285D01*
X161109840Y-76721904D01*
X161681268Y-77293333D01*
X161681268Y-76674285D01*
X161111268Y-72641904D02*
X160111268Y-72641904D01*
X161111268Y-72070476D02*
X160539840Y-72499047D01*
X160111268Y-72070476D02*
X160682697Y-72641904D01*
%TO.C,J3*%
X185766849Y-43357552D02*
X185766849Y-44071838D01*
X185719230Y-44214695D01*
X185623992Y-44309933D01*
X185481135Y-44357552D01*
X185385897Y-44357552D01*
X186147802Y-43357552D02*
X186766849Y-43357552D01*
X186433516Y-43738505D01*
X186576373Y-43738505D01*
X186671611Y-43786124D01*
X186719230Y-43833743D01*
X186766849Y-43928981D01*
X186766849Y-44167076D01*
X186719230Y-44262314D01*
X186671611Y-44309933D01*
X186576373Y-44357552D01*
X186290659Y-44357552D01*
X186195421Y-44309933D01*
X186147802Y-44262314D01*
%TO.C,SW2*%
X167312380Y-115964285D02*
X167312380Y-116535714D01*
X167312380Y-116250000D02*
X166312380Y-116250000D01*
X166455238Y-116345238D01*
X166550476Y-116440476D01*
X166598095Y-116535714D01*
%TO.C,SW11*%
X193696666Y-96488095D02*
X193696666Y-96011904D01*
X193982380Y-96583333D02*
X192982380Y-96250000D01*
X193982380Y-95916666D01*
%TO.C,D4*%
X180872380Y-78198095D02*
X179872380Y-78198095D01*
X179872380Y-77960000D01*
X179920000Y-77817142D01*
X180015238Y-77721904D01*
X180110476Y-77674285D01*
X180300952Y-77626666D01*
X180443809Y-77626666D01*
X180634285Y-77674285D01*
X180729523Y-77721904D01*
X180824761Y-77817142D01*
X180872380Y-77960000D01*
X180872380Y-78198095D01*
X180205714Y-76769523D02*
X180872380Y-76769523D01*
X179824761Y-77007619D02*
X180539047Y-77245714D01*
X180539047Y-76626666D01*
X180302380Y-72641904D02*
X179302380Y-72641904D01*
X180302380Y-72070476D02*
X179730952Y-72499047D01*
X179302380Y-72070476D02*
X179873809Y-72641904D01*
%TO.C,*%
%TO.C,U1*%
X128232380Y-58086904D02*
X129041904Y-58086904D01*
X129137142Y-58039285D01*
X129184761Y-57991666D01*
X129232380Y-57896428D01*
X129232380Y-57705952D01*
X129184761Y-57610714D01*
X129137142Y-57563095D01*
X129041904Y-57515476D01*
X128232380Y-57515476D01*
X129232380Y-56515476D02*
X129232380Y-57086904D01*
X129232380Y-56801190D02*
X128232380Y-56801190D01*
X128375238Y-56896428D01*
X128470476Y-56991666D01*
X128518095Y-57086904D01*
%TO.C,J1*%
X191416666Y-33228380D02*
X191416666Y-33942666D01*
X191369047Y-34085523D01*
X191273809Y-34180761D01*
X191130952Y-34228380D01*
X191035714Y-34228380D01*
X192416666Y-34228380D02*
X191845238Y-34228380D01*
X192130952Y-34228380D02*
X192130952Y-33228380D01*
X192035714Y-33371238D01*
X191940476Y-33466476D01*
X191845238Y-33514095D01*
%TO.C,R4*%
X172686432Y-34059046D02*
X172353099Y-33582856D01*
X172115003Y-34059046D02*
X172115003Y-33059046D01*
X172495956Y-33059046D01*
X172591194Y-33106666D01*
X172638813Y-33154285D01*
X172686432Y-33249523D01*
X172686432Y-33392380D01*
X172638813Y-33487618D01*
X172591194Y-33535237D01*
X172495956Y-33582856D01*
X172115003Y-33582856D01*
X173543575Y-33392380D02*
X173543575Y-34059046D01*
X173305479Y-33011427D02*
X173067384Y-33725713D01*
X173686432Y-33725713D01*
%TO.C,*%
%TO.C,SW4*%
X186632380Y-116583333D02*
X186632380Y-115964285D01*
X187013333Y-116297619D01*
X187013333Y-116154761D01*
X187060952Y-116059523D01*
X187108571Y-116011904D01*
X187203809Y-115964285D01*
X187441904Y-115964285D01*
X187537142Y-116011904D01*
X187584761Y-116059523D01*
X187632380Y-116154761D01*
X187632380Y-116440476D01*
X187584761Y-116535714D01*
X187537142Y-116583333D01*
%TO.C,*%
%TO.C,SW6*%
X206952380Y-116011904D02*
X206952380Y-116488095D01*
X207428571Y-116535714D01*
X207380952Y-116488095D01*
X207333333Y-116392857D01*
X207333333Y-116154761D01*
X207380952Y-116059523D01*
X207428571Y-116011904D01*
X207523809Y-115964285D01*
X207761904Y-115964285D01*
X207857142Y-116011904D01*
X207904761Y-116059523D01*
X207952380Y-116154761D01*
X207952380Y-116392857D01*
X207904761Y-116488095D01*
X207857142Y-116535714D01*
%TO.C,R2*%
X172686432Y-49387934D02*
X172353099Y-48911744D01*
X172115003Y-49387934D02*
X172115003Y-48387934D01*
X172495956Y-48387934D01*
X172591194Y-48435554D01*
X172638813Y-48483173D01*
X172686432Y-48578411D01*
X172686432Y-48721268D01*
X172638813Y-48816506D01*
X172591194Y-48864125D01*
X172495956Y-48911744D01*
X172115003Y-48911744D01*
X173067384Y-48483173D02*
X173115003Y-48435554D01*
X173210241Y-48387934D01*
X173448337Y-48387934D01*
X173543575Y-48435554D01*
X173591194Y-48483173D01*
X173638813Y-48578411D01*
X173638813Y-48673649D01*
X173591194Y-48816506D01*
X173019765Y-49387934D01*
X173638813Y-49387934D01*
%TO.C,SW14*%
X136548095Y-104342380D02*
X136548095Y-103342380D01*
X136786190Y-103342380D01*
X136929047Y-103390000D01*
X137024285Y-103485238D01*
X137071904Y-103580476D01*
X137119523Y-103770952D01*
X137119523Y-103913809D01*
X137071904Y-104104285D01*
X137024285Y-104199523D01*
X136929047Y-104294761D01*
X136786190Y-104342380D01*
X136548095Y-104342380D01*
%TO.C,R3*%
X172686432Y-41723490D02*
X172353099Y-41247300D01*
X172115003Y-41723490D02*
X172115003Y-40723490D01*
X172495956Y-40723490D01*
X172591194Y-40771110D01*
X172638813Y-40818729D01*
X172686432Y-40913967D01*
X172686432Y-41056824D01*
X172638813Y-41152062D01*
X172591194Y-41199681D01*
X172495956Y-41247300D01*
X172115003Y-41247300D01*
X173019765Y-40723490D02*
X173638813Y-40723490D01*
X173305479Y-41104443D01*
X173448337Y-41104443D01*
X173543575Y-41152062D01*
X173591194Y-41199681D01*
X173638813Y-41294919D01*
X173638813Y-41533014D01*
X173591194Y-41628252D01*
X173543575Y-41675871D01*
X173448337Y-41723490D01*
X173162622Y-41723490D01*
X173067384Y-41675871D01*
X173019765Y-41628252D01*
%TO.C,SW7*%
X217112380Y-116059523D02*
X217112380Y-116250000D01*
X217160000Y-116345238D01*
X217207619Y-116392857D01*
X217350476Y-116488095D01*
X217540952Y-116535714D01*
X217921904Y-116535714D01*
X218017142Y-116488095D01*
X218064761Y-116440476D01*
X218112380Y-116345238D01*
X218112380Y-116154761D01*
X218064761Y-116059523D01*
X218017142Y-116011904D01*
X217921904Y-115964285D01*
X217683809Y-115964285D01*
X217588571Y-116011904D01*
X217540952Y-116059523D01*
X217493333Y-116154761D01*
X217493333Y-116345238D01*
X217540952Y-116440476D01*
X217588571Y-116488095D01*
X217683809Y-116535714D01*
%TO.C,SW8*%
X227272380Y-116583333D02*
X227272380Y-115916666D01*
X228272380Y-116345238D01*
%TO.C,SW3*%
X176567619Y-116535714D02*
X176520000Y-116488095D01*
X176472380Y-116392857D01*
X176472380Y-116154761D01*
X176520000Y-116059523D01*
X176567619Y-116011904D01*
X176662857Y-115964285D01*
X176758095Y-115964285D01*
X176900952Y-116011904D01*
X177472380Y-116583333D01*
X177472380Y-115964285D01*
%TO.C,SW16*%
X136952857Y-73818571D02*
X136619523Y-73818571D01*
X136619523Y-74342380D02*
X136619523Y-73342380D01*
X137095714Y-73342380D01*
%TO.C,SW12*%
X203268571Y-96178571D02*
X203316190Y-96035714D01*
X203363809Y-95988095D01*
X203459047Y-95940476D01*
X203601904Y-95940476D01*
X203697142Y-95988095D01*
X203744761Y-96035714D01*
X203792380Y-96130952D01*
X203792380Y-96511904D01*
X202792380Y-96511904D01*
X202792380Y-96178571D01*
X202840000Y-96083333D01*
X202887619Y-96035714D01*
X202982857Y-95988095D01*
X203078095Y-95988095D01*
X203173333Y-96035714D01*
X203220952Y-96083333D01*
X203268571Y-96178571D01*
X203268571Y-96511904D01*
%TO.C,D3*%
X171276824Y-78198095D02*
X170276824Y-78198095D01*
X170276824Y-77960000D01*
X170324444Y-77817142D01*
X170419682Y-77721904D01*
X170514920Y-77674285D01*
X170705396Y-77626666D01*
X170848253Y-77626666D01*
X171038729Y-77674285D01*
X171133967Y-77721904D01*
X171229205Y-77817142D01*
X171276824Y-77960000D01*
X171276824Y-78198095D01*
X170276824Y-77293333D02*
X170276824Y-76674285D01*
X170657777Y-77007619D01*
X170657777Y-76864761D01*
X170705396Y-76769523D01*
X170753015Y-76721904D01*
X170848253Y-76674285D01*
X171086348Y-76674285D01*
X171181586Y-76721904D01*
X171229205Y-76769523D01*
X171276824Y-76864761D01*
X171276824Y-77150476D01*
X171229205Y-77245714D01*
X171181586Y-77293333D01*
X170706824Y-72641904D02*
X169706824Y-72641904D01*
X170706824Y-72070476D02*
X170135396Y-72499047D01*
X169706824Y-72070476D02*
X170278253Y-72641904D01*
%TO.C,SW5*%
X197125714Y-116059523D02*
X197792380Y-116059523D01*
X196744761Y-116297619D02*
X197459047Y-116535714D01*
X197459047Y-115916666D01*
%TO.C,SW10*%
X174602380Y-96440476D02*
X174602380Y-96250000D01*
X174554761Y-96154761D01*
X174507142Y-96107142D01*
X174364285Y-96011904D01*
X174173809Y-95964285D01*
X173792857Y-95964285D01*
X173697619Y-96011904D01*
X173650000Y-96059523D01*
X173602380Y-96154761D01*
X173602380Y-96345238D01*
X173650000Y-96440476D01*
X173697619Y-96488095D01*
X173792857Y-96535714D01*
X174030952Y-96535714D01*
X174126190Y-96488095D01*
X174173809Y-96440476D01*
X174221428Y-96345238D01*
X174221428Y-96154761D01*
X174173809Y-96059523D01*
X174126190Y-96011904D01*
X174030952Y-95964285D01*
%TO.C,SW13*%
X213507142Y-95940476D02*
X213554761Y-95988095D01*
X213602380Y-96130952D01*
X213602380Y-96226190D01*
X213554761Y-96369047D01*
X213459523Y-96464285D01*
X213364285Y-96511904D01*
X213173809Y-96559523D01*
X213030952Y-96559523D01*
X212840476Y-96511904D01*
X212745238Y-96464285D01*
X212650000Y-96369047D01*
X212602380Y-96226190D01*
X212602380Y-96130952D01*
X212650000Y-95988095D01*
X212697619Y-95940476D01*
%TO.C,SW15*%
X136595714Y-88818571D02*
X136929047Y-88818571D01*
X137071904Y-89342380D02*
X136595714Y-89342380D01*
X136595714Y-88342380D01*
X137071904Y-88342380D01*
%TO.C,J2*%
X186892380Y-57883333D02*
X187606666Y-57883333D01*
X187749523Y-57930952D01*
X187844761Y-58026190D01*
X187892380Y-58169047D01*
X187892380Y-58264285D01*
X186987619Y-57454761D02*
X186940000Y-57407142D01*
X186892380Y-57311904D01*
X186892380Y-57073809D01*
X186940000Y-56978571D01*
X186987619Y-56930952D01*
X187082857Y-56883333D01*
X187178095Y-56883333D01*
X187320952Y-56930952D01*
X187892380Y-57502380D01*
X187892380Y-56883333D01*
%TO.C,BZ1*%
X209989047Y-38808571D02*
X210131904Y-38856190D01*
X210179523Y-38903809D01*
X210227142Y-38999047D01*
X210227142Y-39141904D01*
X210179523Y-39237142D01*
X210131904Y-39284761D01*
X210036666Y-39332380D01*
X209655714Y-39332380D01*
X209655714Y-38332380D01*
X209989047Y-38332380D01*
X210084285Y-38380000D01*
X210131904Y-38427619D01*
X210179523Y-38522857D01*
X210179523Y-38618095D01*
X210131904Y-38713333D01*
X210084285Y-38760952D01*
X209989047Y-38808571D01*
X209655714Y-38808571D01*
X210560476Y-38332380D02*
X211227142Y-38332380D01*
X210560476Y-39332380D01*
X211227142Y-39332380D01*
X212131904Y-39332380D02*
X211560476Y-39332380D01*
X211846190Y-39332380D02*
X211846190Y-38332380D01*
X211750952Y-38475238D01*
X211655714Y-38570476D01*
X211560476Y-38618095D01*
X207979047Y-43581428D02*
X208740952Y-43581428D01*
X208360000Y-43962380D02*
X208360000Y-43200476D01*
%TO.C,SW1*%
X156152380Y-116297619D02*
X156152380Y-116202380D01*
X156200000Y-116107142D01*
X156247619Y-116059523D01*
X156342857Y-116011904D01*
X156533333Y-115964285D01*
X156771428Y-115964285D01*
X156961904Y-116011904D01*
X157057142Y-116059523D01*
X157104761Y-116107142D01*
X157152380Y-116202380D01*
X157152380Y-116297619D01*
X157104761Y-116392857D01*
X157057142Y-116440476D01*
X156961904Y-116488095D01*
X156771428Y-116535714D01*
X156533333Y-116535714D01*
X156342857Y-116488095D01*
X156247619Y-116440476D01*
X156200000Y-116392857D01*
X156152380Y-116297619D01*
D12*
%TO.C,D1*%
X150633332Y-74740000D02*
X147693332Y-74740000D01*
X150633332Y-80180000D02*
X150633332Y-74740000D01*
X149163332Y-73520000D02*
X149163332Y-74740000D01*
X150633332Y-75760000D02*
X147693332Y-75760000D01*
X147693332Y-80180000D02*
X150633332Y-80180000D01*
X150633332Y-75640000D02*
X147693332Y-75640000D01*
X150633332Y-75520000D02*
X147693332Y-75520000D01*
X149163332Y-81400000D02*
X149163332Y-80180000D01*
X147693332Y-74740000D02*
X147693332Y-80180000D01*
%TO.C,R1*%
X176123099Y-60340000D02*
X176123099Y-57600000D01*
X169583099Y-60340000D02*
X176123099Y-60340000D01*
X176893099Y-58970000D02*
X176123099Y-58970000D01*
X168813099Y-58970000D02*
X169583099Y-58970000D01*
X176123099Y-57600000D02*
X169583099Y-57600000D01*
X169583099Y-57600000D02*
X169583099Y-60340000D01*
%TO.C,SW9*%
X155440000Y-94500000D02*
X155440000Y-99000000D01*
X157940000Y-100250000D02*
X159440000Y-100250000D01*
X161940000Y-99000000D02*
X161940000Y-94500000D01*
X159440000Y-93250000D02*
X157940000Y-93250000D01*
%TO.C,D2*%
X160228888Y-74740000D02*
X157288888Y-74740000D01*
X158758888Y-73520000D02*
X158758888Y-74740000D01*
X160228888Y-75640000D02*
X157288888Y-75640000D01*
X160228888Y-80180000D02*
X160228888Y-74740000D01*
X158758888Y-81400000D02*
X158758888Y-80180000D01*
X157288888Y-80180000D02*
X160228888Y-80180000D01*
X160228888Y-75760000D02*
X157288888Y-75760000D01*
X157288888Y-74740000D02*
X157288888Y-80180000D01*
X160228888Y-75520000D02*
X157288888Y-75520000D01*
%TO.C,J3*%
X184770183Y-47505172D02*
X184770183Y-55185172D01*
X187430183Y-47505172D02*
X187430183Y-55185172D01*
X184770183Y-44905172D02*
X186100183Y-44905172D01*
X184770183Y-47505172D02*
X187430183Y-47505172D01*
X184770183Y-46235172D02*
X184770183Y-44905172D01*
X184770183Y-55185172D02*
X187430183Y-55185172D01*
%TO.C,SW2*%
X161660000Y-120250000D02*
X163160000Y-120250000D01*
X165660000Y-119000000D02*
X165660000Y-114500000D01*
X163160000Y-113250000D02*
X161660000Y-113250000D01*
X159160000Y-114500000D02*
X159160000Y-119000000D01*
%TO.C,SW11*%
X192330000Y-99000000D02*
X192330000Y-94500000D01*
X185830000Y-94500000D02*
X185830000Y-99000000D01*
X188330000Y-100250000D02*
X189830000Y-100250000D01*
X189830000Y-93250000D02*
X188330000Y-93250000D01*
%TO.C,D4*%
X179420000Y-75640000D02*
X176480000Y-75640000D01*
X177950000Y-81400000D02*
X177950000Y-80180000D01*
X179420000Y-75520000D02*
X176480000Y-75520000D01*
X177950000Y-73520000D02*
X177950000Y-74740000D01*
X179420000Y-74740000D02*
X176480000Y-74740000D01*
X176480000Y-74740000D02*
X176480000Y-80180000D01*
X179420000Y-80180000D02*
X179420000Y-74740000D01*
X179420000Y-75760000D02*
X176480000Y-75760000D01*
X176480000Y-80180000D02*
X179420000Y-80180000D01*
%TO.C,U1*%
X136560000Y-33825000D02*
X161990000Y-33825000D01*
X136560000Y-36365000D02*
X129660000Y-36365000D01*
X129660000Y-59685000D02*
X161990000Y-59685000D01*
X129660000Y-36365000D02*
X129660000Y-59685000D01*
X164120000Y-57565000D02*
X164120000Y-35955000D01*
X136560000Y-33825000D02*
X136560000Y-36365000D01*
X161990000Y-59685000D02*
G75*
G03*
X164120000Y-57555000I-2J2130002D01*
G01*
X164120000Y-35955000D02*
G75*
G03*
X161990000Y-33825000I-2130002J-2D01*
G01*
D10*
X156415000Y-32785000D02*
X155145000Y-32785000D01*
X155145000Y-32785000D02*
X155780000Y-33420000D01*
X155780000Y-33420000D02*
X156415000Y-32785000D01*
G36*
X155780000Y-33420000D02*
G01*
X155145000Y-32785000D01*
X156415000Y-32785000D01*
X155780000Y-33420000D01*
G37*
X155780000Y-33420000D02*
X155145000Y-32785000D01*
X156415000Y-32785000D01*
X155780000Y-33420000D01*
D12*
%TO.C,J1*%
X195110000Y-36576000D02*
X195610000Y-36576000D01*
X195110000Y-35366000D02*
X195110000Y-36576000D01*
X195610000Y-38886000D02*
X195610000Y-34866000D01*
X187890000Y-36576000D02*
X188390000Y-36576000D01*
X187890000Y-37386000D02*
X188890000Y-37386000D01*
X187890000Y-34866000D02*
X187890000Y-38886000D01*
X187590000Y-36686000D02*
X187590000Y-39186000D01*
X188390000Y-36576000D02*
X188390000Y-35366000D01*
X194610000Y-37386000D02*
X194610000Y-38886000D01*
X188390000Y-35366000D02*
X195110000Y-35366000D01*
X187590000Y-39186000D02*
X190090000Y-39186000D01*
X195610000Y-37386000D02*
X194610000Y-37386000D01*
X187890000Y-38886000D02*
X195610000Y-38886000D01*
X195610000Y-34866000D02*
X187890000Y-34866000D01*
X188890000Y-37386000D02*
X188890000Y-38886000D01*
%TO.C,R4*%
X168813099Y-35976666D02*
X169583099Y-35976666D01*
X176893099Y-35976666D02*
X176123099Y-35976666D01*
X169583099Y-34606666D02*
X169583099Y-37346666D01*
X176123099Y-34606666D02*
X169583099Y-34606666D01*
X169583099Y-37346666D02*
X176123099Y-37346666D01*
X176123099Y-37346666D02*
X176123099Y-34606666D01*
%TO.C,SW4*%
X181980000Y-120250000D02*
X183480000Y-120250000D01*
X183480000Y-113250000D02*
X181980000Y-113250000D01*
X179480000Y-114500000D02*
X179480000Y-119000000D01*
X185980000Y-119000000D02*
X185980000Y-114500000D01*
%TO.C,SW6*%
X199800000Y-114500000D02*
X199800000Y-119000000D01*
X202300000Y-120250000D02*
X203800000Y-120250000D01*
X203800000Y-113250000D02*
X202300000Y-113250000D01*
X206300000Y-119000000D02*
X206300000Y-114500000D01*
%TO.C,R2*%
X168813099Y-51305554D02*
X169583099Y-51305554D01*
X176123099Y-49935554D02*
X169583099Y-49935554D01*
X169583099Y-49935554D02*
X169583099Y-52675554D01*
X176123099Y-52675554D02*
X176123099Y-49935554D01*
X169583099Y-52675554D02*
X176123099Y-52675554D01*
X176893099Y-51305554D02*
X176123099Y-51305554D01*
%TO.C,SW14*%
X133810000Y-107590000D02*
X133810000Y-109090000D01*
X139560000Y-105090000D02*
X135060000Y-105090000D01*
X135060000Y-111590000D02*
X139560000Y-111590000D01*
X140810000Y-109090000D02*
X140810000Y-107590000D01*
%TO.C,R3*%
X176893099Y-43641110D02*
X176123099Y-43641110D01*
X176123099Y-45011110D02*
X176123099Y-42271110D01*
X168813099Y-43641110D02*
X169583099Y-43641110D01*
X169583099Y-45011110D02*
X176123099Y-45011110D01*
X169583099Y-42271110D02*
X169583099Y-45011110D01*
X176123099Y-42271110D02*
X169583099Y-42271110D01*
%TO.C,SW7*%
X212460000Y-120250000D02*
X213960000Y-120250000D01*
X216460000Y-119000000D02*
X216460000Y-114500000D01*
X209960000Y-114500000D02*
X209960000Y-119000000D01*
X213960000Y-113250000D02*
X212460000Y-113250000D01*
%TO.C,SW8*%
X224120000Y-113250000D02*
X222620000Y-113250000D01*
X222620000Y-120250000D02*
X224120000Y-120250000D01*
X226620000Y-119000000D02*
X226620000Y-114500000D01*
X220120000Y-114500000D02*
X220120000Y-119000000D01*
%TO.C,SW3*%
X171820000Y-120250000D02*
X173320000Y-120250000D01*
X169320000Y-114500000D02*
X169320000Y-119000000D01*
X175820000Y-119000000D02*
X175820000Y-114500000D01*
X173320000Y-113250000D02*
X171820000Y-113250000D01*
%TO.C,SW16*%
X133810000Y-77590000D02*
X133810000Y-79090000D01*
X140810000Y-79090000D02*
X140810000Y-77590000D01*
X139560000Y-75090000D02*
X135060000Y-75090000D01*
X135060000Y-81590000D02*
X139560000Y-81590000D01*
%TO.C,SW12*%
X202140000Y-99000000D02*
X202140000Y-94500000D01*
X199640000Y-93250000D02*
X198140000Y-93250000D01*
X195640000Y-94500000D02*
X195640000Y-99000000D01*
X198140000Y-100250000D02*
X199640000Y-100250000D01*
%TO.C,D3*%
X169824444Y-75520000D02*
X166884444Y-75520000D01*
X169824444Y-80180000D02*
X169824444Y-74740000D01*
X168354444Y-81400000D02*
X168354444Y-80180000D01*
X169824444Y-74740000D02*
X166884444Y-74740000D01*
X166884444Y-74740000D02*
X166884444Y-80180000D01*
X169824444Y-75640000D02*
X166884444Y-75640000D01*
X169824444Y-75760000D02*
X166884444Y-75760000D01*
X168354444Y-73520000D02*
X168354444Y-74740000D01*
X166884444Y-80180000D02*
X169824444Y-80180000D01*
%TO.C,SW5*%
X196140000Y-119000000D02*
X196140000Y-114500000D01*
X193640000Y-113250000D02*
X192140000Y-113250000D01*
X192140000Y-120250000D02*
X193640000Y-120250000D01*
X189640000Y-114500000D02*
X189640000Y-119000000D01*
%TO.C,SW10*%
X170450000Y-93250000D02*
X168950000Y-93250000D01*
X166450000Y-94500000D02*
X166450000Y-99000000D01*
X172950000Y-99000000D02*
X172950000Y-94500000D01*
X168950000Y-100250000D02*
X170450000Y-100250000D01*
%TO.C,SW13*%
X211950000Y-99000000D02*
X211950000Y-94500000D01*
X209450000Y-93250000D02*
X207950000Y-93250000D01*
X207950000Y-100250000D02*
X209450000Y-100250000D01*
X205450000Y-94500000D02*
X205450000Y-99000000D01*
%TO.C,SW15*%
X139560000Y-90090000D02*
X135060000Y-90090000D01*
X133810000Y-92590000D02*
X133810000Y-94090000D01*
X140810000Y-94090000D02*
X140810000Y-92590000D01*
X135060000Y-96590000D02*
X139560000Y-96590000D01*
%TO.C,J2*%
X198720000Y-58880000D02*
X198720000Y-56220000D01*
X191040000Y-58880000D02*
X198720000Y-58880000D01*
X191040000Y-58880000D02*
X191040000Y-56220000D01*
X188440000Y-58880000D02*
X188440000Y-57550000D01*
X191040000Y-56220000D02*
X198720000Y-56220000D01*
X189770000Y-58880000D02*
X188440000Y-58880000D01*
%TO.C,BZ1*%
X204470000Y-44550000D02*
G75*
G03*
X204470000Y-47549999I6400010J-1499999D01*
G01*
X217100000Y-46050000D02*
G75*
G03*
X217100000Y-46050000I-6230000J0D01*
G01*
%TO.C,SW1*%
X151500000Y-120250000D02*
X153000000Y-120250000D01*
X149000000Y-114500000D02*
X149000000Y-119000000D01*
X155500000Y-119000000D02*
X155500000Y-114500000D01*
X153000000Y-113250000D02*
X151500000Y-113250000D01*
%TD*%
M02*
