%TF.GenerationSoftware,KiCad,Pcbnew,(6.0.2)*%
%TF.CreationDate,2023-04-25T14:42:27+02:00*%
%TF.ProjectId,piano,7069616e-6f2e-46b6-9963-61645f706362,0.2*%
%TF.SameCoordinates,Original*%
%TF.FileFunction,Legend,Top*%
%TF.FilePolarity,Positive*%
%FSLAX46Y46*%
G04 Gerber Fmt 4.6, Leading zero omitted, Abs format (unit mm)*
G04 Created by KiCad (PCBNEW (6.0.2)) date 2023-04-25 14:42:27*
%MOMM*%
%LPD*%
G01*
G04 APERTURE LIST*
%ADD10C,0.150000*%
%ADD11C,0.120000*%
%ADD12C,0.300000*%
G04 APERTURE END LIST*
D10*
X216108095Y-39321428D02*
X216870000Y-39321428D01*
X216489047Y-39702380D02*
X216489047Y-38940476D01*
X218870000Y-39321428D02*
X219631904Y-39321428D01*
D11*
X201000000Y-38000000D02*
X180000000Y-38000000D01*
X180000000Y-38000000D02*
X180000000Y-59000000D01*
X180000000Y-59000000D02*
X201000000Y-59000000D01*
X201000000Y-59000000D02*
X201000000Y-38000000D01*
D10*
X182355047Y-41601809D02*
X182355047Y-40001809D01*
X182736000Y-40001809D01*
X182964571Y-40078000D01*
X183116952Y-40230380D01*
X183193142Y-40382761D01*
X183269333Y-40687523D01*
X183269333Y-40916095D01*
X183193142Y-41220857D01*
X183116952Y-41373238D01*
X182964571Y-41525619D01*
X182736000Y-41601809D01*
X182355047Y-41601809D01*
X184716952Y-40001809D02*
X183955047Y-40001809D01*
X183878857Y-40763714D01*
X183955047Y-40687523D01*
X184107428Y-40611333D01*
X184488380Y-40611333D01*
X184640761Y-40687523D01*
X184716952Y-40763714D01*
X184793142Y-40916095D01*
X184793142Y-41297047D01*
X184716952Y-41449428D01*
X184640761Y-41525619D01*
X184488380Y-41601809D01*
X184107428Y-41601809D01*
X183955047Y-41525619D01*
X183878857Y-41449428D01*
X182355047Y-44177809D02*
X182355047Y-42577809D01*
X182736000Y-42577809D01*
X182964571Y-42654000D01*
X183116952Y-42806380D01*
X183193142Y-42958761D01*
X183269333Y-43263523D01*
X183269333Y-43492095D01*
X183193142Y-43796857D01*
X183116952Y-43949238D01*
X182964571Y-44101619D01*
X182736000Y-44177809D01*
X182355047Y-44177809D01*
X184640761Y-42577809D02*
X184336000Y-42577809D01*
X184183619Y-42654000D01*
X184107428Y-42730190D01*
X183955047Y-42958761D01*
X183878857Y-43263523D01*
X183878857Y-43873047D01*
X183955047Y-44025428D01*
X184031238Y-44101619D01*
X184183619Y-44177809D01*
X184488380Y-44177809D01*
X184640761Y-44101619D01*
X184716952Y-44025428D01*
X184793142Y-43873047D01*
X184793142Y-43492095D01*
X184716952Y-43339714D01*
X184640761Y-43263523D01*
X184488380Y-43187333D01*
X184183619Y-43187333D01*
X184031238Y-43263523D01*
X183955047Y-43339714D01*
X183878857Y-43492095D01*
X182355047Y-46753809D02*
X182355047Y-45153809D01*
X182736000Y-45153809D01*
X182964571Y-45230000D01*
X183116952Y-45382380D01*
X183193142Y-45534761D01*
X183269333Y-45839523D01*
X183269333Y-46068095D01*
X183193142Y-46372857D01*
X183116952Y-46525238D01*
X182964571Y-46677619D01*
X182736000Y-46753809D01*
X182355047Y-46753809D01*
X183802666Y-45153809D02*
X184869333Y-45153809D01*
X184183619Y-46753809D01*
X182355047Y-49329809D02*
X182355047Y-47729809D01*
X182736000Y-47729809D01*
X182964571Y-47806000D01*
X183116952Y-47958380D01*
X183193142Y-48110761D01*
X183269333Y-48415523D01*
X183269333Y-48644095D01*
X183193142Y-48948857D01*
X183116952Y-49101238D01*
X182964571Y-49253619D01*
X182736000Y-49329809D01*
X182355047Y-49329809D01*
X184183619Y-48415523D02*
X184031238Y-48339333D01*
X183955047Y-48263142D01*
X183878857Y-48110761D01*
X183878857Y-48034571D01*
X183955047Y-47882190D01*
X184031238Y-47806000D01*
X184183619Y-47729809D01*
X184488380Y-47729809D01*
X184640761Y-47806000D01*
X184716952Y-47882190D01*
X184793142Y-48034571D01*
X184793142Y-48110761D01*
X184716952Y-48263142D01*
X184640761Y-48339333D01*
X184488380Y-48415523D01*
X184183619Y-48415523D01*
X184031238Y-48491714D01*
X183955047Y-48567904D01*
X183878857Y-48720285D01*
X183878857Y-49025047D01*
X183955047Y-49177428D01*
X184031238Y-49253619D01*
X184183619Y-49329809D01*
X184488380Y-49329809D01*
X184640761Y-49253619D01*
X184716952Y-49177428D01*
X184793142Y-49025047D01*
X184793142Y-48720285D01*
X184716952Y-48567904D01*
X184640761Y-48491714D01*
X184488380Y-48415523D01*
D12*
X181845714Y-53352857D02*
X181917142Y-53424285D01*
X181988571Y-53638571D01*
X181988571Y-53781428D01*
X181917142Y-53995714D01*
X181774285Y-54138571D01*
X181631428Y-54210000D01*
X181345714Y-54281428D01*
X181131428Y-54281428D01*
X180845714Y-54210000D01*
X180702857Y-54138571D01*
X180560000Y-53995714D01*
X180488571Y-53781428D01*
X180488571Y-53638571D01*
X180560000Y-53424285D01*
X180631428Y-53352857D01*
X181988571Y-52495714D02*
X181917142Y-52638571D01*
X181845714Y-52710000D01*
X181702857Y-52781428D01*
X181274285Y-52781428D01*
X181131428Y-52710000D01*
X181060000Y-52638571D01*
X180988571Y-52495714D01*
X180988571Y-52281428D01*
X181060000Y-52138571D01*
X181131428Y-52067142D01*
X181274285Y-51995714D01*
X181702857Y-51995714D01*
X181845714Y-52067142D01*
X181917142Y-52138571D01*
X181988571Y-52281428D01*
X181988571Y-52495714D01*
X181988571Y-51138571D02*
X181917142Y-51281428D01*
X181774285Y-51352857D01*
X180488571Y-51352857D01*
X181917142Y-50638571D02*
X181988571Y-50495714D01*
X181988571Y-50210000D01*
X181917142Y-50067142D01*
X181774285Y-49995714D01*
X181702857Y-49995714D01*
X181560000Y-50067142D01*
X181488571Y-50210000D01*
X181488571Y-50424285D01*
X181417142Y-50567142D01*
X181274285Y-50638571D01*
X181202857Y-50638571D01*
X181060000Y-50567142D01*
X180988571Y-50424285D01*
X180988571Y-50210000D01*
X181060000Y-50067142D01*
X181417142Y-49352857D02*
X181417142Y-48210000D01*
X181702857Y-48495714D02*
X181417142Y-48210000D01*
X181131428Y-48495714D01*
D10*
X191189809Y-57000952D02*
X189589809Y-57000952D01*
X189589809Y-56620000D01*
X189666000Y-56391428D01*
X189818380Y-56239047D01*
X189970761Y-56162857D01*
X190275523Y-56086666D01*
X190504095Y-56086666D01*
X190808857Y-56162857D01*
X190961238Y-56239047D01*
X191113619Y-56391428D01*
X191189809Y-56620000D01*
X191189809Y-57000952D01*
X191189809Y-54562857D02*
X191189809Y-55477142D01*
X191189809Y-55020000D02*
X189589809Y-55020000D01*
X189818380Y-55172380D01*
X189970761Y-55324761D01*
X190046952Y-55477142D01*
X193765809Y-57000952D02*
X192165809Y-57000952D01*
X192165809Y-56620000D01*
X192242000Y-56391428D01*
X192394380Y-56239047D01*
X192546761Y-56162857D01*
X192851523Y-56086666D01*
X193080095Y-56086666D01*
X193384857Y-56162857D01*
X193537238Y-56239047D01*
X193689619Y-56391428D01*
X193765809Y-56620000D01*
X193765809Y-57000952D01*
X192318190Y-55477142D02*
X192242000Y-55400952D01*
X192165809Y-55248571D01*
X192165809Y-54867619D01*
X192242000Y-54715238D01*
X192318190Y-54639047D01*
X192470571Y-54562857D01*
X192622952Y-54562857D01*
X192851523Y-54639047D01*
X193765809Y-55553333D01*
X193765809Y-54562857D01*
X196341809Y-57000952D02*
X194741809Y-57000952D01*
X194741809Y-56620000D01*
X194818000Y-56391428D01*
X194970380Y-56239047D01*
X195122761Y-56162857D01*
X195427523Y-56086666D01*
X195656095Y-56086666D01*
X195960857Y-56162857D01*
X196113238Y-56239047D01*
X196265619Y-56391428D01*
X196341809Y-56620000D01*
X196341809Y-57000952D01*
X194741809Y-55553333D02*
X194741809Y-54562857D01*
X195351333Y-55096190D01*
X195351333Y-54867619D01*
X195427523Y-54715238D01*
X195503714Y-54639047D01*
X195656095Y-54562857D01*
X196037047Y-54562857D01*
X196189428Y-54639047D01*
X196265619Y-54715238D01*
X196341809Y-54867619D01*
X196341809Y-55324761D01*
X196265619Y-55477142D01*
X196189428Y-55553333D01*
X198917809Y-57000952D02*
X197317809Y-57000952D01*
X197317809Y-56620000D01*
X197394000Y-56391428D01*
X197546380Y-56239047D01*
X197698761Y-56162857D01*
X198003523Y-56086666D01*
X198232095Y-56086666D01*
X198536857Y-56162857D01*
X198689238Y-56239047D01*
X198841619Y-56391428D01*
X198917809Y-56620000D01*
X198917809Y-57000952D01*
X197851142Y-54715238D02*
X198917809Y-54715238D01*
X197241619Y-55096190D02*
X198384476Y-55477142D01*
X198384476Y-54486666D01*
D12*
X189393547Y-48892857D02*
X189393547Y-48730952D01*
X189474500Y-48569047D01*
X189555452Y-48488095D01*
X189717357Y-48407142D01*
X190041166Y-48326190D01*
X190445928Y-48326190D01*
X190769738Y-48407142D01*
X190931642Y-48488095D01*
X191012595Y-48569047D01*
X191093547Y-48730952D01*
X191093547Y-48892857D01*
X191012595Y-49054761D01*
X190931642Y-49135714D01*
X190769738Y-49216666D01*
X190445928Y-49297619D01*
X190041166Y-49297619D01*
X189717357Y-49216666D01*
X189555452Y-49135714D01*
X189474500Y-49054761D01*
X189393547Y-48892857D01*
X189960214Y-45573809D02*
X191093547Y-45573809D01*
X189312595Y-45978571D02*
X190526880Y-46383333D01*
X190526880Y-45330952D01*
X190122119Y-43145238D02*
X190041166Y-43307142D01*
X189960214Y-43388095D01*
X189798309Y-43469047D01*
X189717357Y-43469047D01*
X189555452Y-43388095D01*
X189474500Y-43307142D01*
X189393547Y-43145238D01*
X189393547Y-42821428D01*
X189474500Y-42659523D01*
X189555452Y-42578571D01*
X189717357Y-42497619D01*
X189798309Y-42497619D01*
X189960214Y-42578571D01*
X190041166Y-42659523D01*
X190122119Y-42821428D01*
X190122119Y-43145238D01*
X190203071Y-43307142D01*
X190284023Y-43388095D01*
X190445928Y-43469047D01*
X190769738Y-43469047D01*
X190931642Y-43388095D01*
X191012595Y-43307142D01*
X191093547Y-43145238D01*
X191093547Y-42821428D01*
X191012595Y-42659523D01*
X190931642Y-42578571D01*
X190769738Y-42497619D01*
X190445928Y-42497619D01*
X190284023Y-42578571D01*
X190203071Y-42659523D01*
X190122119Y-42821428D01*
X190931642Y-39502380D02*
X191012595Y-39583333D01*
X191093547Y-39826190D01*
X191093547Y-39988095D01*
X191012595Y-40230952D01*
X190850690Y-40392857D01*
X190688785Y-40473809D01*
X190364976Y-40554761D01*
X190122119Y-40554761D01*
X189798309Y-40473809D01*
X189636404Y-40392857D01*
X189474500Y-40230952D01*
X189393547Y-39988095D01*
X189393547Y-39826190D01*
X189474500Y-39583333D01*
X189555452Y-39502380D01*
X193830547Y-48326190D02*
X193830547Y-49297619D01*
X193830547Y-48811904D02*
X192130547Y-48811904D01*
X192373404Y-48973809D01*
X192535309Y-49135714D01*
X192616261Y-49297619D01*
X192130547Y-45492857D02*
X192130547Y-46302380D01*
X192940071Y-46383333D01*
X192859119Y-46302380D01*
X192778166Y-46140476D01*
X192778166Y-45735714D01*
X192859119Y-45573809D01*
X192940071Y-45492857D01*
X193101976Y-45411904D01*
X193506738Y-45411904D01*
X193668642Y-45492857D01*
X193749595Y-45573809D01*
X193830547Y-45735714D01*
X193830547Y-46140476D01*
X193749595Y-46302380D01*
X193668642Y-46383333D01*
X193830547Y-43307142D02*
X193830547Y-42983333D01*
X193749595Y-42821428D01*
X193668642Y-42740476D01*
X193425785Y-42578571D01*
X193101976Y-42497619D01*
X192454357Y-42497619D01*
X192292452Y-42578571D01*
X192211500Y-42659523D01*
X192130547Y-42821428D01*
X192130547Y-43145238D01*
X192211500Y-43307142D01*
X192292452Y-43388095D01*
X192454357Y-43469047D01*
X192859119Y-43469047D01*
X193021023Y-43388095D01*
X193101976Y-43307142D01*
X193182928Y-43145238D01*
X193182928Y-42821428D01*
X193101976Y-42659523D01*
X193021023Y-42578571D01*
X192859119Y-42497619D01*
X193830547Y-40473809D02*
X192130547Y-40473809D01*
X192130547Y-40069047D01*
X192211500Y-39826190D01*
X192373404Y-39664285D01*
X192535309Y-39583333D01*
X192859119Y-39502380D01*
X193101976Y-39502380D01*
X193425785Y-39583333D01*
X193587690Y-39664285D01*
X193749595Y-39826190D01*
X193830547Y-40069047D01*
X193830547Y-40473809D01*
X195029452Y-49135714D02*
X194948500Y-49054761D01*
X194867547Y-48892857D01*
X194867547Y-48488095D01*
X194948500Y-48326190D01*
X195029452Y-48245238D01*
X195191357Y-48164285D01*
X195353261Y-48164285D01*
X195596119Y-48245238D01*
X196567547Y-49216666D01*
X196567547Y-48164285D01*
X194867547Y-45411904D02*
X194867547Y-45735714D01*
X194948500Y-45897619D01*
X195029452Y-45978571D01*
X195272309Y-46140476D01*
X195596119Y-46221428D01*
X196243738Y-46221428D01*
X196405642Y-46140476D01*
X196486595Y-46059523D01*
X196567547Y-45897619D01*
X196567547Y-45573809D01*
X196486595Y-45411904D01*
X196405642Y-45330952D01*
X196243738Y-45250000D01*
X195838976Y-45250000D01*
X195677071Y-45330952D01*
X195596119Y-45411904D01*
X195515166Y-45573809D01*
X195515166Y-45897619D01*
X195596119Y-46059523D01*
X195677071Y-46140476D01*
X195838976Y-46221428D01*
X196081833Y-43307142D02*
X196081833Y-42497619D01*
X196567547Y-43469047D02*
X194867547Y-42902380D01*
X196567547Y-42335714D01*
X195677071Y-40473809D02*
X195677071Y-39907142D01*
X196567547Y-39664285D02*
X196567547Y-40473809D01*
X194867547Y-40473809D01*
X194867547Y-39664285D01*
X197604547Y-49297619D02*
X197604547Y-48245238D01*
X198252166Y-48811904D01*
X198252166Y-48569047D01*
X198333119Y-48407142D01*
X198414071Y-48326190D01*
X198575976Y-48245238D01*
X198980738Y-48245238D01*
X199142642Y-48326190D01*
X199223595Y-48407142D01*
X199304547Y-48569047D01*
X199304547Y-49054761D01*
X199223595Y-49216666D01*
X199142642Y-49297619D01*
X197604547Y-46383333D02*
X197604547Y-45250000D01*
X199304547Y-45978571D01*
X198414071Y-42740476D02*
X198495023Y-42497619D01*
X198575976Y-42416666D01*
X198737880Y-42335714D01*
X198980738Y-42335714D01*
X199142642Y-42416666D01*
X199223595Y-42497619D01*
X199304547Y-42659523D01*
X199304547Y-43307142D01*
X197604547Y-43307142D01*
X197604547Y-42740476D01*
X197685500Y-42578571D01*
X197766452Y-42497619D01*
X197928357Y-42416666D01*
X198090261Y-42416666D01*
X198252166Y-42497619D01*
X198333119Y-42578571D01*
X198414071Y-42740476D01*
X198414071Y-43307142D01*
X198414071Y-39745238D02*
X198414071Y-40311904D01*
X199304547Y-40311904D02*
X197604547Y-40311904D01*
X197604547Y-39502380D01*
X223007071Y-95602714D02*
X224007071Y-95245571D01*
X223007071Y-94888428D01*
X222507071Y-94031285D02*
X222507071Y-93888428D01*
X222578500Y-93745571D01*
X222649928Y-93674142D01*
X222792785Y-93602714D01*
X223078500Y-93531285D01*
X223435642Y-93531285D01*
X223721357Y-93602714D01*
X223864214Y-93674142D01*
X223935642Y-93745571D01*
X224007071Y-93888428D01*
X224007071Y-94031285D01*
X223935642Y-94174142D01*
X223864214Y-94245571D01*
X223721357Y-94317000D01*
X223435642Y-94388428D01*
X223078500Y-94388428D01*
X222792785Y-94317000D01*
X222649928Y-94245571D01*
X222578500Y-94174142D01*
X222507071Y-94031285D01*
X223864214Y-92888428D02*
X223935642Y-92817000D01*
X224007071Y-92888428D01*
X223935642Y-92959857D01*
X223864214Y-92888428D01*
X224007071Y-92888428D01*
X222649928Y-92245571D02*
X222578500Y-92174142D01*
X222507071Y-92031285D01*
X222507071Y-91674142D01*
X222578500Y-91531285D01*
X222649928Y-91459857D01*
X222792785Y-91388428D01*
X222935642Y-91388428D01*
X223149928Y-91459857D01*
X224007071Y-92317000D01*
X224007071Y-91388428D01*
X226279214Y-95459857D02*
X226350642Y-95388428D01*
X226422071Y-95459857D01*
X226350642Y-95531285D01*
X226279214Y-95459857D01*
X226422071Y-95459857D01*
X225493500Y-95459857D02*
X225564928Y-95388428D01*
X225636357Y-95459857D01*
X225564928Y-95531285D01*
X225493500Y-95459857D01*
X225636357Y-95459857D01*
X224850642Y-93674142D02*
X226779214Y-94959857D01*
X224850642Y-92102714D02*
X226779214Y-93388428D01*
X226350642Y-91674142D02*
X226422071Y-91531285D01*
X226422071Y-91245571D01*
X226350642Y-91102714D01*
X226207785Y-91031285D01*
X226136357Y-91031285D01*
X225993500Y-91102714D01*
X225922071Y-91245571D01*
X225922071Y-91459857D01*
X225850642Y-91602714D01*
X225707785Y-91674142D01*
X225636357Y-91674142D01*
X225493500Y-91602714D01*
X225422071Y-91459857D01*
X225422071Y-91245571D01*
X225493500Y-91102714D01*
X225422071Y-89745571D02*
X226422071Y-89745571D01*
X225422071Y-90388428D02*
X226207785Y-90388428D01*
X226350642Y-90317000D01*
X226422071Y-90174142D01*
X226422071Y-89959857D01*
X226350642Y-89817000D01*
X226279214Y-89745571D01*
X226422071Y-89031285D02*
X225422071Y-89031285D01*
X224922071Y-89031285D02*
X224993500Y-89102714D01*
X225064928Y-89031285D01*
X224993500Y-88959857D01*
X224922071Y-89031285D01*
X225064928Y-89031285D01*
X226279214Y-88317000D02*
X226350642Y-88245571D01*
X226422071Y-88317000D01*
X226350642Y-88388428D01*
X226279214Y-88317000D01*
X226422071Y-88317000D01*
X226422071Y-87388428D02*
X226350642Y-87531285D01*
X226207785Y-87602714D01*
X224922071Y-87602714D01*
X226422071Y-86817000D02*
X225422071Y-86817000D01*
X224922071Y-86817000D02*
X224993500Y-86888428D01*
X225064928Y-86817000D01*
X224993500Y-86745571D01*
X224922071Y-86817000D01*
X225064928Y-86817000D01*
X184884285Y-58348571D02*
X184384285Y-57634285D01*
X184027142Y-58348571D02*
X184027142Y-56848571D01*
X184598571Y-56848571D01*
X184741428Y-56920000D01*
X184812857Y-56991428D01*
X184884285Y-57134285D01*
X184884285Y-57348571D01*
X184812857Y-57491428D01*
X184741428Y-57562857D01*
X184598571Y-57634285D01*
X184027142Y-57634285D01*
X185741428Y-58348571D02*
X185598571Y-58277142D01*
X185527142Y-58205714D01*
X185455714Y-58062857D01*
X185455714Y-57634285D01*
X185527142Y-57491428D01*
X185598571Y-57420000D01*
X185741428Y-57348571D01*
X185955714Y-57348571D01*
X186098571Y-57420000D01*
X186170000Y-57491428D01*
X186241428Y-57634285D01*
X186241428Y-58062857D01*
X186170000Y-58205714D01*
X186098571Y-58277142D01*
X185955714Y-58348571D01*
X185741428Y-58348571D01*
X186741428Y-57348571D02*
X187027142Y-58348571D01*
X187312857Y-57634285D01*
X187598571Y-58348571D01*
X187884285Y-57348571D01*
X188384285Y-58277142D02*
X188527142Y-58348571D01*
X188812857Y-58348571D01*
X188955714Y-58277142D01*
X189027142Y-58134285D01*
X189027142Y-58062857D01*
X188955714Y-57920000D01*
X188812857Y-57848571D01*
X188598571Y-57848571D01*
X188455714Y-57777142D01*
X188384285Y-57634285D01*
X188384285Y-57562857D01*
X188455714Y-57420000D01*
X188598571Y-57348571D01*
X188812857Y-57348571D01*
X188955714Y-57420000D01*
X189670000Y-57777142D02*
X190812857Y-57777142D01*
X190527142Y-58062857D02*
X190812857Y-57777142D01*
X190527142Y-57491428D01*
D10*
%TO.C,D1*%
X217548474Y-76478095D02*
X216548474Y-76478095D01*
X216548474Y-76240000D01*
X216596094Y-76097142D01*
X216691332Y-76001904D01*
X216786570Y-75954285D01*
X216977046Y-75906666D01*
X217119903Y-75906666D01*
X217310379Y-75954285D01*
X217405617Y-76001904D01*
X217500855Y-76097142D01*
X217548474Y-76240000D01*
X217548474Y-76478095D01*
X217548474Y-74954285D02*
X217548474Y-75525714D01*
X217548474Y-75240000D02*
X216548474Y-75240000D01*
X216691332Y-75335238D01*
X216786570Y-75430476D01*
X216834189Y-75525714D01*
%TO.C,D2*%
X209162380Y-76478095D02*
X208162380Y-76478095D01*
X208162380Y-76240000D01*
X208210000Y-76097142D01*
X208305238Y-76001904D01*
X208400476Y-75954285D01*
X208590952Y-75906666D01*
X208733809Y-75906666D01*
X208924285Y-75954285D01*
X209019523Y-76001904D01*
X209114761Y-76097142D01*
X209162380Y-76240000D01*
X209162380Y-76478095D01*
X208257619Y-75525714D02*
X208210000Y-75478095D01*
X208162380Y-75382857D01*
X208162380Y-75144761D01*
X208210000Y-75049523D01*
X208257619Y-75001904D01*
X208352857Y-74954285D01*
X208448095Y-74954285D01*
X208590952Y-75001904D01*
X209162380Y-75573333D01*
X209162380Y-74954285D01*
%TO.C,D4*%
X192390192Y-76478095D02*
X191390192Y-76478095D01*
X191390192Y-76240000D01*
X191437812Y-76097142D01*
X191533050Y-76001904D01*
X191628288Y-75954285D01*
X191818764Y-75906666D01*
X191961621Y-75906666D01*
X192152097Y-75954285D01*
X192247335Y-76001904D01*
X192342573Y-76097142D01*
X192390192Y-76240000D01*
X192390192Y-76478095D01*
X191723526Y-75049523D02*
X192390192Y-75049523D01*
X191342573Y-75287619D02*
X192056859Y-75525714D01*
X192056859Y-74906666D01*
%TO.C,D3*%
X200776286Y-76478095D02*
X199776286Y-76478095D01*
X199776286Y-76240000D01*
X199823906Y-76097142D01*
X199919144Y-76001904D01*
X200014382Y-75954285D01*
X200204858Y-75906666D01*
X200347715Y-75906666D01*
X200538191Y-75954285D01*
X200633429Y-76001904D01*
X200728667Y-76097142D01*
X200776286Y-76240000D01*
X200776286Y-76478095D01*
X199776286Y-75573333D02*
X199776286Y-74954285D01*
X200157239Y-75287619D01*
X200157239Y-75144761D01*
X200204858Y-75049523D01*
X200252477Y-75001904D01*
X200347715Y-74954285D01*
X200585810Y-74954285D01*
X200681048Y-75001904D01*
X200728667Y-75049523D01*
X200776286Y-75144761D01*
X200776286Y-75430476D01*
X200728667Y-75525714D01*
X200681048Y-75573333D01*
%TO.C,BZ1*%
X166699047Y-33378571D02*
X166841904Y-33426190D01*
X166889523Y-33473809D01*
X166937142Y-33569047D01*
X166937142Y-33711904D01*
X166889523Y-33807142D01*
X166841904Y-33854761D01*
X166746666Y-33902380D01*
X166365714Y-33902380D01*
X166365714Y-32902380D01*
X166699047Y-32902380D01*
X166794285Y-32950000D01*
X166841904Y-32997619D01*
X166889523Y-33092857D01*
X166889523Y-33188095D01*
X166841904Y-33283333D01*
X166794285Y-33330952D01*
X166699047Y-33378571D01*
X166365714Y-33378571D01*
X167270476Y-32902380D02*
X167937142Y-32902380D01*
X167270476Y-33902380D01*
X167937142Y-33902380D01*
X168841904Y-33902380D02*
X168270476Y-33902380D01*
X168556190Y-33902380D02*
X168556190Y-32902380D01*
X168460952Y-33045238D01*
X168365714Y-33140476D01*
X168270476Y-33188095D01*
X169579047Y-36771428D02*
X170340952Y-36771428D01*
X169960000Y-37152380D02*
X169960000Y-36390476D01*
%TO.C,SW-7*%
X227272380Y-117178571D02*
X227272380Y-117083333D01*
X227320000Y-116988095D01*
X227367619Y-116940476D01*
X227462857Y-116892857D01*
X227653333Y-116845238D01*
X227891428Y-116845238D01*
X228081904Y-116892857D01*
X228177142Y-116940476D01*
X228224761Y-116988095D01*
X228272380Y-117083333D01*
X228272380Y-117178571D01*
X228224761Y-117273809D01*
X228177142Y-117321428D01*
X228081904Y-117369047D01*
X227891428Y-117416666D01*
X227653333Y-117416666D01*
X227462857Y-117369047D01*
X227367619Y-117321428D01*
X227320000Y-117273809D01*
X227272380Y-117178571D01*
X228272380Y-116511904D02*
X227605714Y-115988095D01*
X227605714Y-116511904D02*
X228272380Y-115988095D01*
X227272380Y-115702380D02*
X227272380Y-115035714D01*
X228272380Y-115464285D01*
%TO.C,SW-0*%
X156152380Y-117178571D02*
X156152380Y-117083333D01*
X156200000Y-116988095D01*
X156247619Y-116940476D01*
X156342857Y-116892857D01*
X156533333Y-116845238D01*
X156771428Y-116845238D01*
X156961904Y-116892857D01*
X157057142Y-116940476D01*
X157104761Y-116988095D01*
X157152380Y-117083333D01*
X157152380Y-117178571D01*
X157104761Y-117273809D01*
X157057142Y-117321428D01*
X156961904Y-117369047D01*
X156771428Y-117416666D01*
X156533333Y-117416666D01*
X156342857Y-117369047D01*
X156247619Y-117321428D01*
X156200000Y-117273809D01*
X156152380Y-117178571D01*
X157152380Y-116511904D02*
X156485714Y-115988095D01*
X156485714Y-116511904D02*
X157152380Y-115988095D01*
X156152380Y-115416666D02*
X156152380Y-115321428D01*
X156200000Y-115226190D01*
X156247619Y-115178571D01*
X156342857Y-115130952D01*
X156533333Y-115083333D01*
X156771428Y-115083333D01*
X156961904Y-115130952D01*
X157057142Y-115178571D01*
X157104761Y-115226190D01*
X157152380Y-115321428D01*
X157152380Y-115416666D01*
X157104761Y-115511904D01*
X157057142Y-115559523D01*
X156961904Y-115607142D01*
X156771428Y-115654761D01*
X156533333Y-115654761D01*
X156342857Y-115607142D01*
X156247619Y-115559523D01*
X156200000Y-115511904D01*
X156152380Y-115416666D01*
%TO.C,SW-8*%
X161272380Y-97178571D02*
X161272380Y-97083333D01*
X161320000Y-96988095D01*
X161367619Y-96940476D01*
X161462857Y-96892857D01*
X161653333Y-96845238D01*
X161891428Y-96845238D01*
X162081904Y-96892857D01*
X162177142Y-96940476D01*
X162224761Y-96988095D01*
X162272380Y-97083333D01*
X162272380Y-97178571D01*
X162224761Y-97273809D01*
X162177142Y-97321428D01*
X162081904Y-97369047D01*
X161891428Y-97416666D01*
X161653333Y-97416666D01*
X161462857Y-97369047D01*
X161367619Y-97321428D01*
X161320000Y-97273809D01*
X161272380Y-97178571D01*
X162272380Y-96511904D02*
X161605714Y-95988095D01*
X161605714Y-96511904D02*
X162272380Y-95988095D01*
X161700952Y-95464285D02*
X161653333Y-95559523D01*
X161605714Y-95607142D01*
X161510476Y-95654761D01*
X161462857Y-95654761D01*
X161367619Y-95607142D01*
X161320000Y-95559523D01*
X161272380Y-95464285D01*
X161272380Y-95273809D01*
X161320000Y-95178571D01*
X161367619Y-95130952D01*
X161462857Y-95083333D01*
X161510476Y-95083333D01*
X161605714Y-95130952D01*
X161653333Y-95178571D01*
X161700952Y-95273809D01*
X161700952Y-95464285D01*
X161748571Y-95559523D01*
X161796190Y-95607142D01*
X161891428Y-95654761D01*
X162081904Y-95654761D01*
X162177142Y-95607142D01*
X162224761Y-95559523D01*
X162272380Y-95464285D01*
X162272380Y-95273809D01*
X162224761Y-95178571D01*
X162177142Y-95130952D01*
X162081904Y-95083333D01*
X161891428Y-95083333D01*
X161796190Y-95130952D01*
X161748571Y-95178571D01*
X161700952Y-95273809D01*
%TO.C,SW-1*%
X166312380Y-117178571D02*
X166312380Y-117083333D01*
X166360000Y-116988095D01*
X166407619Y-116940476D01*
X166502857Y-116892857D01*
X166693333Y-116845238D01*
X166931428Y-116845238D01*
X167121904Y-116892857D01*
X167217142Y-116940476D01*
X167264761Y-116988095D01*
X167312380Y-117083333D01*
X167312380Y-117178571D01*
X167264761Y-117273809D01*
X167217142Y-117321428D01*
X167121904Y-117369047D01*
X166931428Y-117416666D01*
X166693333Y-117416666D01*
X166502857Y-117369047D01*
X166407619Y-117321428D01*
X166360000Y-117273809D01*
X166312380Y-117178571D01*
X167312380Y-116511904D02*
X166645714Y-115988095D01*
X166645714Y-116511904D02*
X167312380Y-115988095D01*
X167312380Y-115083333D02*
X167312380Y-115654761D01*
X167312380Y-115369047D02*
X166312380Y-115369047D01*
X166455238Y-115464285D01*
X166550476Y-115559523D01*
X166598095Y-115654761D01*
%TO.C,SW-A1*%
X191752380Y-97130952D02*
X191752380Y-97035714D01*
X191800000Y-96940476D01*
X191847619Y-96892857D01*
X191942857Y-96845238D01*
X192133333Y-96797619D01*
X192371428Y-96797619D01*
X192561904Y-96845238D01*
X192657142Y-96892857D01*
X192704761Y-96940476D01*
X192752380Y-97035714D01*
X192752380Y-97130952D01*
X192704761Y-97226190D01*
X192657142Y-97273809D01*
X192561904Y-97321428D01*
X192371428Y-97369047D01*
X192133333Y-97369047D01*
X191942857Y-97321428D01*
X191847619Y-97273809D01*
X191800000Y-97226190D01*
X191752380Y-97130952D01*
X192752380Y-96464285D02*
X192085714Y-95940476D01*
X192085714Y-96464285D02*
X192752380Y-95940476D01*
X192466666Y-95607142D02*
X192466666Y-95130952D01*
X192752380Y-95702380D02*
X191752380Y-95369047D01*
X192752380Y-95035714D01*
%TO.C,SW-3*%
X186632380Y-117178571D02*
X186632380Y-117083333D01*
X186680000Y-116988095D01*
X186727619Y-116940476D01*
X186822857Y-116892857D01*
X187013333Y-116845238D01*
X187251428Y-116845238D01*
X187441904Y-116892857D01*
X187537142Y-116940476D01*
X187584761Y-116988095D01*
X187632380Y-117083333D01*
X187632380Y-117178571D01*
X187584761Y-117273809D01*
X187537142Y-117321428D01*
X187441904Y-117369047D01*
X187251428Y-117416666D01*
X187013333Y-117416666D01*
X186822857Y-117369047D01*
X186727619Y-117321428D01*
X186680000Y-117273809D01*
X186632380Y-117178571D01*
X187632380Y-116511904D02*
X186965714Y-115988095D01*
X186965714Y-116511904D02*
X187632380Y-115988095D01*
X186632380Y-115702380D02*
X186632380Y-115083333D01*
X187013333Y-115416666D01*
X187013333Y-115273809D01*
X187060952Y-115178571D01*
X187108571Y-115130952D01*
X187203809Y-115083333D01*
X187441904Y-115083333D01*
X187537142Y-115130952D01*
X187584761Y-115178571D01*
X187632380Y-115273809D01*
X187632380Y-115559523D01*
X187584761Y-115654761D01*
X187537142Y-115702380D01*
%TO.C,SW-5*%
X206952380Y-117178571D02*
X206952380Y-117083333D01*
X207000000Y-116988095D01*
X207047619Y-116940476D01*
X207142857Y-116892857D01*
X207333333Y-116845238D01*
X207571428Y-116845238D01*
X207761904Y-116892857D01*
X207857142Y-116940476D01*
X207904761Y-116988095D01*
X207952380Y-117083333D01*
X207952380Y-117178571D01*
X207904761Y-117273809D01*
X207857142Y-117321428D01*
X207761904Y-117369047D01*
X207571428Y-117416666D01*
X207333333Y-117416666D01*
X207142857Y-117369047D01*
X207047619Y-117321428D01*
X207000000Y-117273809D01*
X206952380Y-117178571D01*
X207952380Y-116511904D02*
X207285714Y-115988095D01*
X207285714Y-116511904D02*
X207952380Y-115988095D01*
X206952380Y-115130952D02*
X206952380Y-115607142D01*
X207428571Y-115654761D01*
X207380952Y-115607142D01*
X207333333Y-115511904D01*
X207333333Y-115273809D01*
X207380952Y-115178571D01*
X207428571Y-115130952D01*
X207523809Y-115083333D01*
X207761904Y-115083333D01*
X207857142Y-115130952D01*
X207904761Y-115178571D01*
X207952380Y-115273809D01*
X207952380Y-115511904D01*
X207904761Y-115607142D01*
X207857142Y-115654761D01*
%TO.C,SW-D1*%
X135857619Y-103342380D02*
X135952857Y-103342380D01*
X136048095Y-103390000D01*
X136095714Y-103437619D01*
X136143333Y-103532857D01*
X136190952Y-103723333D01*
X136190952Y-103961428D01*
X136143333Y-104151904D01*
X136095714Y-104247142D01*
X136048095Y-104294761D01*
X135952857Y-104342380D01*
X135857619Y-104342380D01*
X135762380Y-104294761D01*
X135714761Y-104247142D01*
X135667142Y-104151904D01*
X135619523Y-103961428D01*
X135619523Y-103723333D01*
X135667142Y-103532857D01*
X135714761Y-103437619D01*
X135762380Y-103390000D01*
X135857619Y-103342380D01*
X136524285Y-104342380D02*
X137048095Y-103675714D01*
X136524285Y-103675714D02*
X137048095Y-104342380D01*
X137429047Y-104342380D02*
X137429047Y-103342380D01*
X137667142Y-103342380D01*
X137810000Y-103390000D01*
X137905238Y-103485238D01*
X137952857Y-103580476D01*
X138000476Y-103770952D01*
X138000476Y-103913809D01*
X137952857Y-104104285D01*
X137905238Y-104199523D01*
X137810000Y-104294761D01*
X137667142Y-104342380D01*
X137429047Y-104342380D01*
%TO.C,SW-6*%
X217112380Y-117178571D02*
X217112380Y-117083333D01*
X217160000Y-116988095D01*
X217207619Y-116940476D01*
X217302857Y-116892857D01*
X217493333Y-116845238D01*
X217731428Y-116845238D01*
X217921904Y-116892857D01*
X218017142Y-116940476D01*
X218064761Y-116988095D01*
X218112380Y-117083333D01*
X218112380Y-117178571D01*
X218064761Y-117273809D01*
X218017142Y-117321428D01*
X217921904Y-117369047D01*
X217731428Y-117416666D01*
X217493333Y-117416666D01*
X217302857Y-117369047D01*
X217207619Y-117321428D01*
X217160000Y-117273809D01*
X217112380Y-117178571D01*
X218112380Y-116511904D02*
X217445714Y-115988095D01*
X217445714Y-116511904D02*
X218112380Y-115988095D01*
X217112380Y-115178571D02*
X217112380Y-115369047D01*
X217160000Y-115464285D01*
X217207619Y-115511904D01*
X217350476Y-115607142D01*
X217540952Y-115654761D01*
X217921904Y-115654761D01*
X218017142Y-115607142D01*
X218064761Y-115559523D01*
X218112380Y-115464285D01*
X218112380Y-115273809D01*
X218064761Y-115178571D01*
X218017142Y-115130952D01*
X217921904Y-115083333D01*
X217683809Y-115083333D01*
X217588571Y-115130952D01*
X217540952Y-115178571D01*
X217493333Y-115273809D01*
X217493333Y-115464285D01*
X217540952Y-115559523D01*
X217588571Y-115607142D01*
X217683809Y-115654761D01*
%TO.C,SW-2*%
X176472380Y-117178571D02*
X176472380Y-117083333D01*
X176520000Y-116988095D01*
X176567619Y-116940476D01*
X176662857Y-116892857D01*
X176853333Y-116845238D01*
X177091428Y-116845238D01*
X177281904Y-116892857D01*
X177377142Y-116940476D01*
X177424761Y-116988095D01*
X177472380Y-117083333D01*
X177472380Y-117178571D01*
X177424761Y-117273809D01*
X177377142Y-117321428D01*
X177281904Y-117369047D01*
X177091428Y-117416666D01*
X176853333Y-117416666D01*
X176662857Y-117369047D01*
X176567619Y-117321428D01*
X176520000Y-117273809D01*
X176472380Y-117178571D01*
X177472380Y-116511904D02*
X176805714Y-115988095D01*
X176805714Y-116511904D02*
X177472380Y-115988095D01*
X176567619Y-115654761D02*
X176520000Y-115607142D01*
X176472380Y-115511904D01*
X176472380Y-115273809D01*
X176520000Y-115178571D01*
X176567619Y-115130952D01*
X176662857Y-115083333D01*
X176758095Y-115083333D01*
X176900952Y-115130952D01*
X177472380Y-115702380D01*
X177472380Y-115083333D01*
%TO.C,SW-F1*%
X135929047Y-73342380D02*
X136024285Y-73342380D01*
X136119523Y-73390000D01*
X136167142Y-73437619D01*
X136214761Y-73532857D01*
X136262380Y-73723333D01*
X136262380Y-73961428D01*
X136214761Y-74151904D01*
X136167142Y-74247142D01*
X136119523Y-74294761D01*
X136024285Y-74342380D01*
X135929047Y-74342380D01*
X135833809Y-74294761D01*
X135786190Y-74247142D01*
X135738571Y-74151904D01*
X135690952Y-73961428D01*
X135690952Y-73723333D01*
X135738571Y-73532857D01*
X135786190Y-73437619D01*
X135833809Y-73390000D01*
X135929047Y-73342380D01*
X136595714Y-74342380D02*
X137119523Y-73675714D01*
X136595714Y-73675714D02*
X137119523Y-74342380D01*
X137833809Y-73818571D02*
X137500476Y-73818571D01*
X137500476Y-74342380D02*
X137500476Y-73342380D01*
X137976666Y-73342380D01*
%TO.C,SW-B1*%
X201992380Y-97202380D02*
X201992380Y-97107142D01*
X202040000Y-97011904D01*
X202087619Y-96964285D01*
X202182857Y-96916666D01*
X202373333Y-96869047D01*
X202611428Y-96869047D01*
X202801904Y-96916666D01*
X202897142Y-96964285D01*
X202944761Y-97011904D01*
X202992380Y-97107142D01*
X202992380Y-97202380D01*
X202944761Y-97297619D01*
X202897142Y-97345238D01*
X202801904Y-97392857D01*
X202611428Y-97440476D01*
X202373333Y-97440476D01*
X202182857Y-97392857D01*
X202087619Y-97345238D01*
X202040000Y-97297619D01*
X201992380Y-97202380D01*
X202992380Y-96535714D02*
X202325714Y-96011904D01*
X202325714Y-96535714D02*
X202992380Y-96011904D01*
X202468571Y-95297619D02*
X202516190Y-95154761D01*
X202563809Y-95107142D01*
X202659047Y-95059523D01*
X202801904Y-95059523D01*
X202897142Y-95107142D01*
X202944761Y-95154761D01*
X202992380Y-95250000D01*
X202992380Y-95630952D01*
X201992380Y-95630952D01*
X201992380Y-95297619D01*
X202040000Y-95202380D01*
X202087619Y-95154761D01*
X202182857Y-95107142D01*
X202278095Y-95107142D01*
X202373333Y-95154761D01*
X202420952Y-95202380D01*
X202468571Y-95297619D01*
X202468571Y-95630952D01*
%TO.C,SW-4*%
X196792380Y-117178571D02*
X196792380Y-117083333D01*
X196840000Y-116988095D01*
X196887619Y-116940476D01*
X196982857Y-116892857D01*
X197173333Y-116845238D01*
X197411428Y-116845238D01*
X197601904Y-116892857D01*
X197697142Y-116940476D01*
X197744761Y-116988095D01*
X197792380Y-117083333D01*
X197792380Y-117178571D01*
X197744761Y-117273809D01*
X197697142Y-117321428D01*
X197601904Y-117369047D01*
X197411428Y-117416666D01*
X197173333Y-117416666D01*
X196982857Y-117369047D01*
X196887619Y-117321428D01*
X196840000Y-117273809D01*
X196792380Y-117178571D01*
X197792380Y-116511904D02*
X197125714Y-115988095D01*
X197125714Y-116511904D02*
X197792380Y-115988095D01*
X197125714Y-115178571D02*
X197792380Y-115178571D01*
X196744761Y-115416666D02*
X197459047Y-115654761D01*
X197459047Y-115035714D01*
%TO.C,SW-9*%
X171512380Y-97178571D02*
X171512380Y-97083333D01*
X171560000Y-96988095D01*
X171607619Y-96940476D01*
X171702857Y-96892857D01*
X171893333Y-96845238D01*
X172131428Y-96845238D01*
X172321904Y-96892857D01*
X172417142Y-96940476D01*
X172464761Y-96988095D01*
X172512380Y-97083333D01*
X172512380Y-97178571D01*
X172464761Y-97273809D01*
X172417142Y-97321428D01*
X172321904Y-97369047D01*
X172131428Y-97416666D01*
X171893333Y-97416666D01*
X171702857Y-97369047D01*
X171607619Y-97321428D01*
X171560000Y-97273809D01*
X171512380Y-97178571D01*
X172512380Y-96511904D02*
X171845714Y-95988095D01*
X171845714Y-96511904D02*
X172512380Y-95988095D01*
X172512380Y-95559523D02*
X172512380Y-95369047D01*
X172464761Y-95273809D01*
X172417142Y-95226190D01*
X172274285Y-95130952D01*
X172083809Y-95083333D01*
X171702857Y-95083333D01*
X171607619Y-95130952D01*
X171560000Y-95178571D01*
X171512380Y-95273809D01*
X171512380Y-95464285D01*
X171560000Y-95559523D01*
X171607619Y-95607142D01*
X171702857Y-95654761D01*
X171940952Y-95654761D01*
X172036190Y-95607142D01*
X172083809Y-95559523D01*
X172131428Y-95464285D01*
X172131428Y-95273809D01*
X172083809Y-95178571D01*
X172036190Y-95130952D01*
X171940952Y-95083333D01*
%TO.C,SW-C1*%
X212232380Y-97202380D02*
X212232380Y-97107142D01*
X212280000Y-97011904D01*
X212327619Y-96964285D01*
X212422857Y-96916666D01*
X212613333Y-96869047D01*
X212851428Y-96869047D01*
X213041904Y-96916666D01*
X213137142Y-96964285D01*
X213184761Y-97011904D01*
X213232380Y-97107142D01*
X213232380Y-97202380D01*
X213184761Y-97297619D01*
X213137142Y-97345238D01*
X213041904Y-97392857D01*
X212851428Y-97440476D01*
X212613333Y-97440476D01*
X212422857Y-97392857D01*
X212327619Y-97345238D01*
X212280000Y-97297619D01*
X212232380Y-97202380D01*
X213232380Y-96535714D02*
X212565714Y-96011904D01*
X212565714Y-96535714D02*
X213232380Y-96011904D01*
X213137142Y-95059523D02*
X213184761Y-95107142D01*
X213232380Y-95250000D01*
X213232380Y-95345238D01*
X213184761Y-95488095D01*
X213089523Y-95583333D01*
X212994285Y-95630952D01*
X212803809Y-95678571D01*
X212660952Y-95678571D01*
X212470476Y-95630952D01*
X212375238Y-95583333D01*
X212280000Y-95488095D01*
X212232380Y-95345238D01*
X212232380Y-95250000D01*
X212280000Y-95107142D01*
X212327619Y-95059523D01*
%TO.C,SW-E1*%
X135429047Y-88342380D02*
X135524285Y-88342380D01*
X135619523Y-88390000D01*
X135667142Y-88437619D01*
X135714761Y-88532857D01*
X135762380Y-88723333D01*
X135762380Y-88961428D01*
X135714761Y-89151904D01*
X135667142Y-89247142D01*
X135619523Y-89294761D01*
X135524285Y-89342380D01*
X135429047Y-89342380D01*
X135333809Y-89294761D01*
X135286190Y-89247142D01*
X135238571Y-89151904D01*
X135190952Y-88961428D01*
X135190952Y-88723333D01*
X135238571Y-88532857D01*
X135286190Y-88437619D01*
X135333809Y-88390000D01*
X135429047Y-88342380D01*
X136095714Y-89342380D02*
X136619523Y-88675714D01*
X136095714Y-88675714D02*
X136619523Y-89342380D01*
X137000476Y-88818571D02*
X137333809Y-88818571D01*
X137476666Y-89342380D02*
X137000476Y-89342380D01*
X137000476Y-88342380D01*
X137476666Y-88342380D01*
X137810000Y-88342380D02*
X138429047Y-88342380D01*
X138095714Y-88723333D01*
X138238571Y-88723333D01*
X138333809Y-88770952D01*
X138381428Y-88818571D01*
X138429047Y-88913809D01*
X138429047Y-89151904D01*
X138381428Y-89247142D01*
X138333809Y-89294761D01*
X138238571Y-89342380D01*
X137952857Y-89342380D01*
X137857619Y-89294761D01*
X137810000Y-89247142D01*
%TO.C,R1*%
X179262380Y-75996666D02*
X178786190Y-76330000D01*
X179262380Y-76568095D02*
X178262380Y-76568095D01*
X178262380Y-76187142D01*
X178310000Y-76091904D01*
X178357619Y-76044285D01*
X178452857Y-75996666D01*
X178595714Y-75996666D01*
X178690952Y-76044285D01*
X178738571Y-76091904D01*
X178786190Y-76187142D01*
X178786190Y-76568095D01*
X179262380Y-75044285D02*
X179262380Y-75615714D01*
X179262380Y-75330000D02*
X178262380Y-75330000D01*
X178405238Y-75425238D01*
X178500476Y-75520476D01*
X178548095Y-75615714D01*
%TO.C,*%
%TO.C,R5*%
X186633333Y-34972380D02*
X186300000Y-34496190D01*
X186061904Y-34972380D02*
X186061904Y-33972380D01*
X186442857Y-33972380D01*
X186538095Y-34020000D01*
X186585714Y-34067619D01*
X186633333Y-34162857D01*
X186633333Y-34305714D01*
X186585714Y-34400952D01*
X186538095Y-34448571D01*
X186442857Y-34496190D01*
X186061904Y-34496190D01*
X187538095Y-33972380D02*
X187061904Y-33972380D01*
X187014285Y-34448571D01*
X187061904Y-34400952D01*
X187157142Y-34353333D01*
X187395238Y-34353333D01*
X187490476Y-34400952D01*
X187538095Y-34448571D01*
X187585714Y-34543809D01*
X187585714Y-34781904D01*
X187538095Y-34877142D01*
X187490476Y-34924761D01*
X187395238Y-34972380D01*
X187157142Y-34972380D01*
X187061904Y-34924761D01*
X187014285Y-34877142D01*
%TO.C,Q1*%
X167994761Y-55217619D02*
X167899523Y-55170000D01*
X167804285Y-55074761D01*
X167661428Y-54931904D01*
X167566190Y-54884285D01*
X167470952Y-54884285D01*
X167518571Y-55122380D02*
X167423333Y-55074761D01*
X167328095Y-54979523D01*
X167280476Y-54789047D01*
X167280476Y-54455714D01*
X167328095Y-54265238D01*
X167423333Y-54170000D01*
X167518571Y-54122380D01*
X167709047Y-54122380D01*
X167804285Y-54170000D01*
X167899523Y-54265238D01*
X167947142Y-54455714D01*
X167947142Y-54789047D01*
X167899523Y-54979523D01*
X167804285Y-55074761D01*
X167709047Y-55122380D01*
X167518571Y-55122380D01*
X168899523Y-55122380D02*
X168328095Y-55122380D01*
X168613809Y-55122380D02*
X168613809Y-54122380D01*
X168518571Y-54265238D01*
X168423333Y-54360476D01*
X168328095Y-54408095D01*
%TO.C,*%
%TO.C,U1*%
X128232380Y-58086904D02*
X129041904Y-58086904D01*
X129137142Y-58039285D01*
X129184761Y-57991666D01*
X129232380Y-57896428D01*
X129232380Y-57705952D01*
X129184761Y-57610714D01*
X129137142Y-57563095D01*
X129041904Y-57515476D01*
X128232380Y-57515476D01*
X129232380Y-56515476D02*
X129232380Y-57086904D01*
X129232380Y-56801190D02*
X128232380Y-56801190D01*
X128375238Y-56896428D01*
X128470476Y-56991666D01*
X128518095Y-57086904D01*
%TO.C,J1*%
X222288571Y-37911428D02*
X222336190Y-37768571D01*
X222383809Y-37720952D01*
X222479047Y-37673333D01*
X222621904Y-37673333D01*
X222717142Y-37720952D01*
X222764761Y-37768571D01*
X222812380Y-37863809D01*
X222812380Y-38244761D01*
X221812380Y-38244761D01*
X221812380Y-37911428D01*
X221860000Y-37816190D01*
X221907619Y-37768571D01*
X222002857Y-37720952D01*
X222098095Y-37720952D01*
X222193333Y-37768571D01*
X222240952Y-37816190D01*
X222288571Y-37911428D01*
X222288571Y-38244761D01*
X222812380Y-36816190D02*
X222288571Y-36816190D01*
X222193333Y-36863809D01*
X222145714Y-36959047D01*
X222145714Y-37149523D01*
X222193333Y-37244761D01*
X222764761Y-36816190D02*
X222812380Y-36911428D01*
X222812380Y-37149523D01*
X222764761Y-37244761D01*
X222669523Y-37292380D01*
X222574285Y-37292380D01*
X222479047Y-37244761D01*
X222431428Y-37149523D01*
X222431428Y-36911428D01*
X222383809Y-36816190D01*
X222145714Y-36482857D02*
X222145714Y-36101904D01*
X221812380Y-36340000D02*
X222669523Y-36340000D01*
X222764761Y-36292380D01*
X222812380Y-36197142D01*
X222812380Y-36101904D01*
X222145714Y-35911428D02*
X222145714Y-35530476D01*
X221812380Y-35768571D02*
X222669523Y-35768571D01*
X222764761Y-35720952D01*
X222812380Y-35625714D01*
X222812380Y-35530476D01*
X222764761Y-34816190D02*
X222812380Y-34911428D01*
X222812380Y-35101904D01*
X222764761Y-35197142D01*
X222669523Y-35244761D01*
X222288571Y-35244761D01*
X222193333Y-35197142D01*
X222145714Y-35101904D01*
X222145714Y-34911428D01*
X222193333Y-34816190D01*
X222288571Y-34768571D01*
X222383809Y-34768571D01*
X222479047Y-35244761D01*
X222812380Y-34340000D02*
X222145714Y-34340000D01*
X222336190Y-34340000D02*
X222240952Y-34292380D01*
X222193333Y-34244761D01*
X222145714Y-34149523D01*
X222145714Y-34054285D01*
X222145714Y-33816190D02*
X222812380Y-33578095D01*
X222145714Y-33340000D02*
X222812380Y-33578095D01*
X223050476Y-33673333D01*
X223098095Y-33720952D01*
X223145714Y-33816190D01*
%TO.C,R4*%
X154704097Y-75996666D02*
X154227907Y-76330000D01*
X154704097Y-76568095D02*
X153704097Y-76568095D01*
X153704097Y-76187142D01*
X153751717Y-76091904D01*
X153799336Y-76044285D01*
X153894574Y-75996666D01*
X154037431Y-75996666D01*
X154132669Y-76044285D01*
X154180288Y-76091904D01*
X154227907Y-76187142D01*
X154227907Y-76568095D01*
X154037431Y-75139523D02*
X154704097Y-75139523D01*
X153656478Y-75377619D02*
X154370764Y-75615714D01*
X154370764Y-74996666D01*
%TO.C,*%
%TO.C,R2*%
X171076285Y-75996666D02*
X170600095Y-76330000D01*
X171076285Y-76568095D02*
X170076285Y-76568095D01*
X170076285Y-76187142D01*
X170123905Y-76091904D01*
X170171524Y-76044285D01*
X170266762Y-75996666D01*
X170409619Y-75996666D01*
X170504857Y-76044285D01*
X170552476Y-76091904D01*
X170600095Y-76187142D01*
X170600095Y-76568095D01*
X170171524Y-75615714D02*
X170123905Y-75568095D01*
X170076285Y-75472857D01*
X170076285Y-75234761D01*
X170123905Y-75139523D01*
X170171524Y-75091904D01*
X170266762Y-75044285D01*
X170362000Y-75044285D01*
X170504857Y-75091904D01*
X171076285Y-75663333D01*
X171076285Y-75044285D01*
%TO.C,R3*%
X162890191Y-75996666D02*
X162414001Y-76330000D01*
X162890191Y-76568095D02*
X161890191Y-76568095D01*
X161890191Y-76187142D01*
X161937811Y-76091904D01*
X161985430Y-76044285D01*
X162080668Y-75996666D01*
X162223525Y-75996666D01*
X162318763Y-76044285D01*
X162366382Y-76091904D01*
X162414001Y-76187142D01*
X162414001Y-76568095D01*
X161890191Y-75663333D02*
X161890191Y-75044285D01*
X162271144Y-75377619D01*
X162271144Y-75234761D01*
X162318763Y-75139523D01*
X162366382Y-75091904D01*
X162461620Y-75044285D01*
X162699715Y-75044285D01*
X162794953Y-75091904D01*
X162842572Y-75139523D01*
X162890191Y-75234761D01*
X162890191Y-75520476D01*
X162842572Y-75615714D01*
X162794953Y-75663333D01*
%TO.C,SW1*%
X203354761Y-35293333D02*
X203402380Y-35150476D01*
X203402380Y-34912380D01*
X203354761Y-34817142D01*
X203307142Y-34769523D01*
X203211904Y-34721904D01*
X203116666Y-34721904D01*
X203021428Y-34769523D01*
X202973809Y-34817142D01*
X202926190Y-34912380D01*
X202878571Y-35102857D01*
X202830952Y-35198095D01*
X202783333Y-35245714D01*
X202688095Y-35293333D01*
X202592857Y-35293333D01*
X202497619Y-35245714D01*
X202450000Y-35198095D01*
X202402380Y-35102857D01*
X202402380Y-34864761D01*
X202450000Y-34721904D01*
X202402380Y-34388571D02*
X203402380Y-34150476D01*
X202688095Y-33960000D01*
X203402380Y-33769523D01*
X202402380Y-33531428D01*
X203402380Y-32626666D02*
X203402380Y-33198095D01*
X203402380Y-32912380D02*
X202402380Y-32912380D01*
X202545238Y-33007619D01*
X202640476Y-33102857D01*
X202688095Y-33198095D01*
%TO.C,U2*%
X219347619Y-48238095D02*
X218538095Y-48238095D01*
X218442857Y-48285714D01*
X218395238Y-48333333D01*
X218347619Y-48428571D01*
X218347619Y-48619047D01*
X218395238Y-48714285D01*
X218442857Y-48761904D01*
X218538095Y-48809523D01*
X219347619Y-48809523D01*
X219252380Y-49238095D02*
X219300000Y-49285714D01*
X219347619Y-49380952D01*
X219347619Y-49619047D01*
X219300000Y-49714285D01*
X219252380Y-49761904D01*
X219157142Y-49809523D01*
X219061904Y-49809523D01*
X218919047Y-49761904D01*
X218347619Y-49190476D01*
X218347619Y-49809523D01*
X216847619Y-45119047D02*
X216847619Y-44642857D01*
X217847619Y-44642857D01*
X216847619Y-45452380D02*
X217514285Y-45452380D01*
X217847619Y-45452380D02*
X217800000Y-45404761D01*
X217752380Y-45452380D01*
X217800000Y-45500000D01*
X217847619Y-45452380D01*
X217752380Y-45452380D01*
X216847619Y-45928571D02*
X217847619Y-45928571D01*
X217847619Y-46309523D01*
X217800000Y-46404761D01*
X217752380Y-46452380D01*
X217657142Y-46500000D01*
X217514285Y-46500000D01*
X217419047Y-46452380D01*
X217371428Y-46404761D01*
X217323809Y-46309523D01*
X217323809Y-45928571D01*
X216847619Y-47071428D02*
X216895238Y-46976190D01*
X216942857Y-46928571D01*
X217038095Y-46880952D01*
X217323809Y-46880952D01*
X217419047Y-46928571D01*
X217466666Y-46976190D01*
X217514285Y-47071428D01*
X217514285Y-47214285D01*
X217466666Y-47309523D01*
X217419047Y-47357142D01*
X217323809Y-47404761D01*
X217038095Y-47404761D01*
X216942857Y-47357142D01*
X216895238Y-47309523D01*
X216847619Y-47214285D01*
X216847619Y-47071428D01*
X216752380Y-47595238D02*
X216752380Y-48357142D01*
X216847619Y-48595238D02*
X217847619Y-48595238D01*
X217133333Y-48928571D01*
X217847619Y-49261904D01*
X216847619Y-49261904D01*
X216847619Y-49880952D02*
X216895238Y-49785714D01*
X216942857Y-49738095D01*
X217038095Y-49690476D01*
X217323809Y-49690476D01*
X217419047Y-49738095D01*
X217466666Y-49785714D01*
X217514285Y-49880952D01*
X217514285Y-50023809D01*
X217466666Y-50119047D01*
X217419047Y-50166666D01*
X217323809Y-50214285D01*
X217038095Y-50214285D01*
X216942857Y-50166666D01*
X216895238Y-50119047D01*
X216847619Y-50023809D01*
X216847619Y-49880952D01*
X216847619Y-51071428D02*
X217847619Y-51071428D01*
X216895238Y-51071428D02*
X216847619Y-50976190D01*
X216847619Y-50785714D01*
X216895238Y-50690476D01*
X216942857Y-50642857D01*
X217038095Y-50595238D01*
X217323809Y-50595238D01*
X217419047Y-50642857D01*
X217466666Y-50690476D01*
X217514285Y-50785714D01*
X217514285Y-50976190D01*
X217466666Y-51071428D01*
X217514285Y-51976190D02*
X216847619Y-51976190D01*
X217514285Y-51547619D02*
X216990476Y-51547619D01*
X216895238Y-51595238D01*
X216847619Y-51690476D01*
X216847619Y-51833333D01*
X216895238Y-51928571D01*
X216942857Y-51976190D01*
X216847619Y-52595238D02*
X216895238Y-52500000D01*
X216990476Y-52452380D01*
X217847619Y-52452380D01*
X216895238Y-53357142D02*
X216847619Y-53261904D01*
X216847619Y-53071428D01*
X216895238Y-52976190D01*
X216990476Y-52928571D01*
X217371428Y-52928571D01*
X217466666Y-52976190D01*
X217514285Y-53071428D01*
X217514285Y-53261904D01*
X217466666Y-53357142D01*
X217371428Y-53404761D01*
X217276190Y-53404761D01*
X217180952Y-52928571D01*
X207968928Y-52488571D02*
X208111785Y-52536190D01*
X208159404Y-52583809D01*
X208207023Y-52679047D01*
X208207023Y-52821904D01*
X208159404Y-52917142D01*
X208111785Y-52964761D01*
X208016547Y-53012380D01*
X207635595Y-53012380D01*
X207635595Y-52012380D01*
X207968928Y-52012380D01*
X208064166Y-52060000D01*
X208111785Y-52107619D01*
X208159404Y-52202857D01*
X208159404Y-52298095D01*
X208111785Y-52393333D01*
X208064166Y-52440952D01*
X207968928Y-52488571D01*
X207635595Y-52488571D01*
X208635595Y-52631428D02*
X209397500Y-52631428D01*
X209016547Y-53012380D02*
X209016547Y-52250476D01*
X207968928Y-45368571D02*
X208111785Y-45416190D01*
X208159404Y-45463809D01*
X208207023Y-45559047D01*
X208207023Y-45701904D01*
X208159404Y-45797142D01*
X208111785Y-45844761D01*
X208016547Y-45892380D01*
X207635595Y-45892380D01*
X207635595Y-44892380D01*
X207968928Y-44892380D01*
X208064166Y-44940000D01*
X208111785Y-44987619D01*
X208159404Y-45082857D01*
X208159404Y-45178095D01*
X208111785Y-45273333D01*
X208064166Y-45320952D01*
X207968928Y-45368571D01*
X207635595Y-45368571D01*
X208635595Y-45511428D02*
X209397500Y-45511428D01*
X207826071Y-41392380D02*
X208016547Y-41392380D01*
X208111785Y-41440000D01*
X208207023Y-41535238D01*
X208254642Y-41725714D01*
X208254642Y-42059047D01*
X208207023Y-42249523D01*
X208111785Y-42344761D01*
X208016547Y-42392380D01*
X207826071Y-42392380D01*
X207730833Y-42344761D01*
X207635595Y-42249523D01*
X207587976Y-42059047D01*
X207587976Y-41725714D01*
X207635595Y-41535238D01*
X207730833Y-41440000D01*
X207826071Y-41392380D01*
X208683214Y-41392380D02*
X208683214Y-42201904D01*
X208730833Y-42297142D01*
X208778452Y-42344761D01*
X208873690Y-42392380D01*
X209064166Y-42392380D01*
X209159404Y-42344761D01*
X209207023Y-42297142D01*
X209254642Y-42201904D01*
X209254642Y-41392380D01*
X209587976Y-41392380D02*
X210159404Y-41392380D01*
X209873690Y-42392380D02*
X209873690Y-41392380D01*
X210492738Y-42011428D02*
X211254642Y-42011428D01*
X226228571Y-55679047D02*
X226228571Y-56440952D01*
X225847619Y-56060000D02*
X226609523Y-56060000D01*
X207826071Y-55512380D02*
X208016547Y-55512380D01*
X208111785Y-55560000D01*
X208207023Y-55655238D01*
X208254642Y-55845714D01*
X208254642Y-56179047D01*
X208207023Y-56369523D01*
X208111785Y-56464761D01*
X208016547Y-56512380D01*
X207826071Y-56512380D01*
X207730833Y-56464761D01*
X207635595Y-56369523D01*
X207587976Y-56179047D01*
X207587976Y-55845714D01*
X207635595Y-55655238D01*
X207730833Y-55560000D01*
X207826071Y-55512380D01*
X208683214Y-55512380D02*
X208683214Y-56321904D01*
X208730833Y-56417142D01*
X208778452Y-56464761D01*
X208873690Y-56512380D01*
X209064166Y-56512380D01*
X209159404Y-56464761D01*
X209207023Y-56417142D01*
X209254642Y-56321904D01*
X209254642Y-55512380D01*
X209587976Y-55512380D02*
X210159404Y-55512380D01*
X209873690Y-56512380D02*
X209873690Y-55512380D01*
X210492738Y-56131428D02*
X211254642Y-56131428D01*
X210873690Y-56512380D02*
X210873690Y-55750476D01*
X226228571Y-41559047D02*
X226228571Y-42320952D01*
D11*
%TO.C,D1*%
X216096094Y-77629052D02*
X213156094Y-77629052D01*
X216096094Y-77749052D02*
X213156094Y-77749052D01*
X213156094Y-73020000D02*
X213156094Y-78460000D01*
X214626094Y-79680000D02*
X214626094Y-78460000D01*
X213156094Y-78460000D02*
X216096094Y-78460000D01*
X216096094Y-77509052D02*
X213156094Y-77509052D01*
X216096094Y-78460000D02*
X216096094Y-73020000D01*
X216096094Y-73020000D02*
X213156094Y-73020000D01*
X214626094Y-71800000D02*
X214626094Y-73020000D01*
%TO.C,D2*%
X207710000Y-77629052D02*
X204770000Y-77629052D01*
X207710000Y-77749052D02*
X204770000Y-77749052D01*
X204770000Y-73020000D02*
X204770000Y-78460000D01*
X206240000Y-79680000D02*
X206240000Y-78460000D01*
X204770000Y-78460000D02*
X207710000Y-78460000D01*
X207710000Y-77509052D02*
X204770000Y-77509052D01*
X207710000Y-78460000D02*
X207710000Y-73020000D01*
X207710000Y-73020000D02*
X204770000Y-73020000D01*
X206240000Y-71800000D02*
X206240000Y-73020000D01*
%TO.C,D4*%
X190937812Y-77629052D02*
X187997812Y-77629052D01*
X190937812Y-77749052D02*
X187997812Y-77749052D01*
X187997812Y-73020000D02*
X187997812Y-78460000D01*
X189467812Y-79680000D02*
X189467812Y-78460000D01*
X187997812Y-78460000D02*
X190937812Y-78460000D01*
X190937812Y-77509052D02*
X187997812Y-77509052D01*
X190937812Y-78460000D02*
X190937812Y-73020000D01*
X190937812Y-73020000D02*
X187997812Y-73020000D01*
X189467812Y-71800000D02*
X189467812Y-73020000D01*
%TO.C,D3*%
X199323906Y-77629052D02*
X196383906Y-77629052D01*
X199323906Y-77749052D02*
X196383906Y-77749052D01*
X196383906Y-73020000D02*
X196383906Y-78460000D01*
X197853906Y-79680000D02*
X197853906Y-78460000D01*
X196383906Y-78460000D02*
X199323906Y-78460000D01*
X199323906Y-77509052D02*
X196383906Y-77509052D01*
X199323906Y-78460000D02*
X199323906Y-73020000D01*
X199323906Y-73020000D02*
X196383906Y-73020000D01*
X197853906Y-71800000D02*
X197853906Y-73020000D01*
%TO.C,BZ1*%
X166070000Y-37740000D02*
G75*
G03*
X166070000Y-40739999I6400010J-1499999D01*
G01*
X178700000Y-39240000D02*
G75*
G03*
X178700000Y-39240000I-6230000J0D01*
G01*
%TO.C,SW-7*%
X224120000Y-113250000D02*
X222620000Y-113250000D01*
X222620000Y-120250000D02*
X224120000Y-120250000D01*
X226620000Y-119000000D02*
X226620000Y-114500000D01*
X220120000Y-114500000D02*
X220120000Y-119000000D01*
%TO.C,SW-0*%
X153000000Y-113250000D02*
X151500000Y-113250000D01*
X151500000Y-120250000D02*
X153000000Y-120250000D01*
X155500000Y-119000000D02*
X155500000Y-114500000D01*
X149000000Y-114500000D02*
X149000000Y-119000000D01*
%TO.C,SW-8*%
X154120000Y-94500000D02*
X154120000Y-99000000D01*
X160620000Y-99000000D02*
X160620000Y-94500000D01*
X156620000Y-100250000D02*
X158120000Y-100250000D01*
X158120000Y-93250000D02*
X156620000Y-93250000D01*
%TO.C,SW-1*%
X163160000Y-113250000D02*
X161660000Y-113250000D01*
X161660000Y-120250000D02*
X163160000Y-120250000D01*
X165660000Y-119000000D02*
X165660000Y-114500000D01*
X159160000Y-114500000D02*
X159160000Y-119000000D01*
%TO.C,SW-A1*%
X188600000Y-93250000D02*
X187100000Y-93250000D01*
X187100000Y-100250000D02*
X188600000Y-100250000D01*
X191100000Y-99000000D02*
X191100000Y-94500000D01*
X184600000Y-94500000D02*
X184600000Y-99000000D01*
%TO.C,SW-3*%
X183480000Y-113250000D02*
X181980000Y-113250000D01*
X181980000Y-120250000D02*
X183480000Y-120250000D01*
X185980000Y-119000000D02*
X185980000Y-114500000D01*
X179480000Y-114500000D02*
X179480000Y-119000000D01*
%TO.C,SW-5*%
X203800000Y-113250000D02*
X202300000Y-113250000D01*
X202300000Y-120250000D02*
X203800000Y-120250000D01*
X206300000Y-119000000D02*
X206300000Y-114500000D01*
X199800000Y-114500000D02*
X199800000Y-119000000D01*
%TO.C,SW-D1*%
X133810000Y-107590000D02*
X133810000Y-109090000D01*
X140810000Y-109090000D02*
X140810000Y-107590000D01*
X139560000Y-105090000D02*
X135060000Y-105090000D01*
X135060000Y-111590000D02*
X139560000Y-111590000D01*
%TO.C,SW-6*%
X213960000Y-113250000D02*
X212460000Y-113250000D01*
X212460000Y-120250000D02*
X213960000Y-120250000D01*
X216460000Y-119000000D02*
X216460000Y-114500000D01*
X209960000Y-114500000D02*
X209960000Y-119000000D01*
%TO.C,SW-2*%
X173320000Y-113250000D02*
X171820000Y-113250000D01*
X171820000Y-120250000D02*
X173320000Y-120250000D01*
X175820000Y-119000000D02*
X175820000Y-114500000D01*
X169320000Y-114500000D02*
X169320000Y-119000000D01*
%TO.C,SW-F1*%
X133810000Y-77590000D02*
X133810000Y-79090000D01*
X140810000Y-79090000D02*
X140810000Y-77590000D01*
X139560000Y-75090000D02*
X135060000Y-75090000D01*
X135060000Y-81590000D02*
X139560000Y-81590000D01*
%TO.C,SW-B1*%
X198840000Y-93250000D02*
X197340000Y-93250000D01*
X197340000Y-100250000D02*
X198840000Y-100250000D01*
X201340000Y-99000000D02*
X201340000Y-94500000D01*
X194840000Y-94500000D02*
X194840000Y-99000000D01*
%TO.C,SW-4*%
X193640000Y-113250000D02*
X192140000Y-113250000D01*
X192140000Y-120250000D02*
X193640000Y-120250000D01*
X196140000Y-119000000D02*
X196140000Y-114500000D01*
X189640000Y-114500000D02*
X189640000Y-119000000D01*
%TO.C,SW-9*%
X168360000Y-93250000D02*
X166860000Y-93250000D01*
X166860000Y-100250000D02*
X168360000Y-100250000D01*
X170860000Y-99000000D02*
X170860000Y-94500000D01*
X164360000Y-94500000D02*
X164360000Y-99000000D01*
%TO.C,SW-C1*%
X209080000Y-93250000D02*
X207580000Y-93250000D01*
X207580000Y-100250000D02*
X209080000Y-100250000D01*
X211580000Y-99000000D02*
X211580000Y-94500000D01*
X205080000Y-94500000D02*
X205080000Y-99000000D01*
%TO.C,SW-E1*%
X133810000Y-92590000D02*
X133810000Y-94090000D01*
X140810000Y-94090000D02*
X140810000Y-92590000D01*
X139560000Y-90090000D02*
X135060000Y-90090000D01*
X135060000Y-96590000D02*
X139560000Y-96590000D01*
%TO.C,R1*%
X177470000Y-79100000D02*
X180210000Y-79100000D01*
X177470000Y-72560000D02*
X177470000Y-79100000D01*
X178840000Y-79870000D02*
X178840000Y-79100000D01*
X178840000Y-71790000D02*
X178840000Y-72560000D01*
X180210000Y-79100000D02*
X180210000Y-72560000D01*
X180210000Y-72560000D02*
X177470000Y-72560000D01*
%TO.C,J3*%
X188340183Y-41955172D02*
X188340183Y-39357915D01*
X185680183Y-40685172D02*
X185680183Y-39355172D01*
X185680183Y-41955172D02*
X185680183Y-49635172D01*
X185680183Y-39355172D02*
X187010183Y-39355172D01*
X185680183Y-49635172D02*
X188340183Y-49635172D01*
X185680183Y-41955172D02*
X185680183Y-40685172D01*
X188340183Y-41955172D02*
X188340183Y-49635172D01*
X187010183Y-39355172D02*
X188340183Y-39355172D01*
%TO.C,R5*%
X183490000Y-33230000D02*
X183490000Y-35970000D01*
X190030000Y-35970000D02*
X190030000Y-33230000D01*
X190030000Y-33230000D02*
X183490000Y-33230000D01*
X183490000Y-35970000D02*
X190030000Y-35970000D01*
X190800000Y-34600000D02*
X190030000Y-34600000D01*
X182720000Y-34600000D02*
X183490000Y-34600000D01*
%TO.C,Q1*%
X169890000Y-49260000D02*
X166290000Y-49260000D01*
X168090000Y-53710001D02*
G75*
G03*
X169928478Y-49271522I0J2600001D01*
G01*
X166251522Y-49271522D02*
G75*
G03*
X168090000Y-53710000I1838478J-1838478D01*
G01*
%TO.C,U1*%
X136560000Y-33825000D02*
X161990000Y-33825000D01*
X136560000Y-36365000D02*
X129660000Y-36365000D01*
X129660000Y-59685000D02*
X161990000Y-59685000D01*
X129660000Y-36365000D02*
X129660000Y-59685000D01*
X164120000Y-57565000D02*
X164120000Y-35955000D01*
X136560000Y-33825000D02*
X136560000Y-36365000D01*
X161990000Y-59685000D02*
G75*
G03*
X164120000Y-57555000I-2J2130002D01*
G01*
X164120000Y-35955000D02*
G75*
G03*
X161990000Y-33825000I-2130002J-2D01*
G01*
D10*
X156415000Y-32785000D02*
X155145000Y-32785000D01*
X155145000Y-32785000D02*
X155780000Y-33420000D01*
X155780000Y-33420000D02*
X156415000Y-32785000D01*
G36*
X155780000Y-33420000D02*
G01*
X155145000Y-32785000D01*
X156415000Y-32785000D01*
X155780000Y-33420000D01*
G37*
X155780000Y-33420000D02*
X155145000Y-32785000D01*
X156415000Y-32785000D01*
X155780000Y-33420000D01*
D11*
%TO.C,J1*%
X221020000Y-34720000D02*
X220410000Y-34720000D01*
X218060000Y-37020000D02*
X218060000Y-37520000D01*
X214900000Y-33410000D02*
X214900000Y-38130000D01*
X216660000Y-33210000D02*
X216360000Y-33210000D01*
X221020000Y-33410000D02*
X214900000Y-33410000D01*
X220410000Y-37520000D02*
X220410000Y-34020000D01*
X215850000Y-33110000D02*
X214600000Y-33110000D01*
X221020000Y-36020000D02*
X220410000Y-36020000D01*
X217860000Y-37520000D02*
X217860000Y-37020000D01*
X221020000Y-38130000D02*
X221020000Y-33410000D01*
X217460000Y-33410000D02*
X217460000Y-34020000D01*
X215510000Y-37520000D02*
X220410000Y-37520000D01*
X216660000Y-33410000D02*
X216660000Y-33210000D01*
X214900000Y-36020000D02*
X215510000Y-36020000D01*
X217960000Y-37520000D02*
X217960000Y-37020000D01*
X218460000Y-34020000D02*
X218460000Y-33410000D01*
X214600000Y-33110000D02*
X214600000Y-34360000D01*
X215510000Y-34020000D02*
X215510000Y-37520000D01*
X216660000Y-33310000D02*
X216360000Y-33310000D01*
X217860000Y-37020000D02*
X218060000Y-37020000D01*
X214900000Y-34720000D02*
X215510000Y-34720000D01*
X216360000Y-33210000D02*
X216360000Y-33410000D01*
X217460000Y-34020000D02*
X215510000Y-34020000D01*
X220410000Y-34020000D02*
X218460000Y-34020000D01*
X214900000Y-38130000D02*
X221020000Y-38130000D01*
%TO.C,R4*%
X154281717Y-71790000D02*
X154281717Y-72560000D01*
X154281717Y-79870000D02*
X154281717Y-79100000D01*
X155651717Y-72560000D02*
X152911717Y-72560000D01*
X155651717Y-79100000D02*
X155651717Y-72560000D01*
X152911717Y-72560000D02*
X152911717Y-79100000D01*
X152911717Y-79100000D02*
X155651717Y-79100000D01*
%TO.C,R2*%
X170653905Y-71790000D02*
X170653905Y-72560000D01*
X172023905Y-79100000D02*
X172023905Y-72560000D01*
X172023905Y-72560000D02*
X169283905Y-72560000D01*
X169283905Y-79100000D02*
X172023905Y-79100000D01*
X169283905Y-72560000D02*
X169283905Y-79100000D01*
X170653905Y-79870000D02*
X170653905Y-79100000D01*
%TO.C,R3*%
X162467811Y-79870000D02*
X162467811Y-79100000D01*
X161097811Y-79100000D02*
X163837811Y-79100000D01*
X162467811Y-71790000D02*
X162467811Y-72560000D01*
X161097811Y-72560000D02*
X161097811Y-79100000D01*
X163837811Y-72560000D02*
X161097811Y-72560000D01*
X163837811Y-79100000D02*
X163837811Y-72560000D01*
%TO.C,SW1*%
X204150000Y-32240000D02*
X212650000Y-32240000D01*
X212650000Y-32240000D02*
X212650000Y-35740000D01*
X212650000Y-35740000D02*
X204150000Y-35740000D01*
X204150000Y-35740000D02*
X204150000Y-32240000D01*
%TO.C,J2*%
X199520000Y-50900000D02*
X199520000Y-52230000D01*
X196920000Y-53560000D02*
X199517257Y-53560000D01*
X199520000Y-52230000D02*
X199520000Y-53560000D01*
X189240000Y-50900000D02*
X189240000Y-53560000D01*
X196920000Y-53560000D02*
X189240000Y-53560000D01*
X196920000Y-50900000D02*
X198190000Y-50900000D01*
X198190000Y-50900000D02*
X199520000Y-50900000D01*
X196920000Y-50900000D02*
X189240000Y-50900000D01*
%TO.C,U2*%
X202030000Y-55500000D02*
X202030000Y-57500000D01*
X202030000Y-57500000D02*
X230030000Y-57500000D01*
X204030000Y-54000000D02*
X202030000Y-55500000D01*
X204030000Y-44000000D02*
X204030000Y-54000000D01*
X202030000Y-40500000D02*
X202030000Y-42500000D01*
X230030000Y-40500000D02*
X202030000Y-40500000D01*
X230030000Y-57500000D02*
X230030000Y-40500000D01*
X202030000Y-42500000D02*
X204030000Y-44000000D01*
%TD*%
M02*
