M48
; DRILL file {KiCad (6.0.2)} date Thu Apr  6 18:34:47 2023
; FORMAT={-:-/ absolute / inch / decimal}
; #@! TF.CreationDate,2023-04-06T18:34:47+02:00
; #@! TF.GenerationSoftware,Kicad,Pcbnew,(6.0.2)
; #@! TF.FileFunction,Plated,1,2,PTH
FMAT,2
INCH
; #@! TA.AperFunction,Plated,PTH,ViaDrill
T1C0.0157
; #@! TA.AperFunction,Plated,PTH,ComponentDrill
T2C0.0315
; #@! TA.AperFunction,Plated,PTH,ComponentDrill
T3C0.0354
; #@! TA.AperFunction,Plated,PTH,ComponentDrill
T4C0.0394
; #@! TA.AperFunction,Plated,PTH,ComponentDrill
T5C0.0433
; #@! TA.AperFunction,Plated,PTH,ComponentDrill
T6C0.1260
%
G90
G05
T1
X5.76Y-4.28
X6.11Y-3.48
X6.16Y-4.27
X6.9Y-3.46
X7.47Y-3.01
X7.57Y-2.96
X7.68Y-2.91
X7.95Y-4.11
X8.13Y-3.02
X8.3Y-2.26
X8.3Y-4.24
X8.43Y-3.03
T2
X6.6052Y-1.4164
X6.6052Y-1.7182
X6.6052Y-2.0199
X6.6052Y-2.3217
X7.0052Y-1.4164
X7.0052Y-1.7182
X7.0052Y-2.0199
X7.0052Y-2.3217
T3
X5.8726Y-2.8496
X5.8726Y-3.2496
X6.2503Y-2.8496
X6.2503Y-3.2496
X6.6281Y-2.8496
X6.6281Y-3.2496
X7.0059Y-2.8496
X7.0059Y-3.2496
T4
X5.4331Y-1.3907
X5.4331Y-2.2907
X5.5331Y-1.3907
X5.5331Y-2.2907
X5.6331Y-1.3907
X5.6331Y-2.2907
X5.7331Y-1.3907
X5.7331Y-2.2907
X5.8331Y-1.3907
X5.8331Y-2.2907
X5.9331Y-1.3907
X5.9331Y-2.2907
X6.0331Y-1.3907
X6.0331Y-2.2907
X6.1331Y-1.3907
X6.1331Y-2.2907
X7.3268Y-1.8203
X7.3268Y-1.9203
X7.3268Y-2.0203
X7.3268Y-2.1203
X7.4713Y-2.2657
X7.5Y-1.44
X7.5713Y-2.2657
X7.5984Y-1.44
X7.6713Y-2.2657
X7.7713Y-2.2657
X8.2035Y-1.813
X8.4004Y-1.813
T5
X5.278Y-2.9957
X5.278Y-3.1728
X5.278Y-3.5862
X5.278Y-3.7634
X5.278Y-4.1768
X5.278Y-4.3539
X5.5339Y-2.9957
X5.5339Y-3.1728
X5.5339Y-3.5862
X5.5339Y-3.7634
X5.5339Y-4.1768
X5.5339Y-4.3539
X5.9055Y-4.4685
X5.9055Y-4.7244
X6.0827Y-4.4685
X6.0827Y-4.7244
X6.1591Y-3.6811
X6.1591Y-3.937
X6.3055Y-4.4685
X6.3055Y-4.7244
X6.3362Y-3.6811
X6.3362Y-3.937
X6.4827Y-4.4685
X6.4827Y-4.7244
X6.5925Y-3.6811
X6.5925Y-3.937
X6.7055Y-4.4685
X6.7055Y-4.7244
X6.7697Y-3.6811
X6.7697Y-3.937
X6.8827Y-4.4685
X6.8827Y-4.7244
X7.1055Y-4.4685
X7.1055Y-4.7244
X7.2827Y-4.4685
X7.2827Y-4.7244
X7.3555Y-3.6811
X7.3555Y-3.937
X7.5055Y-4.4685
X7.5055Y-4.7244
X7.5327Y-3.6811
X7.5327Y-3.937
X7.6827Y-4.4685
X7.6827Y-4.7244
X7.7417Y-3.6811
X7.7417Y-3.937
X7.9055Y-4.4685
X7.9055Y-4.7244
X7.9189Y-3.6811
X7.9189Y-3.937
X8.0827Y-4.4685
X8.0827Y-4.7244
X8.128Y-3.6811
X8.128Y-3.937
X8.3051Y-3.6811
X8.3051Y-3.937
X8.3055Y-4.4685
X8.3055Y-4.7244
X8.4827Y-4.4685
X8.4827Y-4.7244
X8.7055Y-4.4685
X8.7055Y-4.7244
X8.8827Y-4.4685
X8.8827Y-4.7244
T6
X5.2512Y-4.632
X5.3012Y-1.5721
X5.9819Y-2.5197
X8.8512Y-2.5197
X8.8859Y-1.414
X8.8859Y-4.1952
T0
M30
