%TF.GenerationSoftware,KiCad,Pcbnew,(6.0.2)*%
%TF.CreationDate,2023-04-06T18:34:50+02:00*%
%TF.ProjectId,piano,7069616e-6f2e-46b6-9963-61645f706362,rev?*%
%TF.SameCoordinates,Original*%
%TF.FileFunction,Soldermask,Top*%
%TF.FilePolarity,Negative*%
%FSLAX46Y46*%
G04 Gerber Fmt 4.6, Leading zero omitted, Abs format (unit mm)*
G04 Created by KiCad (PCBNEW (6.0.2)) date 2023-04-06 18:34:50*
%MOMM*%
%LPD*%
G01*
G04 APERTURE LIST*
G04 Aperture macros list*
%AMRoundRect*
0 Rectangle with rounded corners*
0 $1 Rounding radius*
0 $2 $3 $4 $5 $6 $7 $8 $9 X,Y pos of 4 corners*
0 Add a 4 corners polygon primitive as box body*
4,1,4,$2,$3,$4,$5,$6,$7,$8,$9,$2,$3,0*
0 Add four circle primitives for the rounded corners*
1,1,$1+$1,$2,$3*
1,1,$1+$1,$4,$5*
1,1,$1+$1,$6,$7*
1,1,$1+$1,$8,$9*
0 Add four rect primitives between the rounded corners*
20,1,$1+$1,$2,$3,$4,$5,0*
20,1,$1+$1,$4,$5,$6,$7,0*
20,1,$1+$1,$6,$7,$8,$9,0*
20,1,$1+$1,$8,$9,$2,$3,0*%
G04 Aperture macros list end*
%ADD10R,1.800000X1.800000*%
%ADD11O,1.800000X1.800000*%
%ADD12C,1.600000*%
%ADD13O,1.600000X1.600000*%
%ADD14C,2.000000*%
%ADD15R,1.700000X1.700000*%
%ADD16O,1.700000X1.700000*%
%ADD17C,4.000000*%
%ADD18R,2.000000X2.000000*%
%ADD19O,1.600000X2.000000*%
%ADD20RoundRect,0.250000X-0.600000X-0.750000X0.600000X-0.750000X0.600000X0.750000X-0.600000X0.750000X0*%
%ADD21O,1.700000X2.000000*%
G04 APERTURE END LIST*
D10*
%TO.C,D1*%
X149163332Y-72380000D03*
D11*
X149163332Y-82540000D03*
%TD*%
D12*
%TO.C,R1*%
X167773099Y-58970000D03*
D13*
X177933099Y-58970000D03*
%TD*%
D14*
%TO.C,SW9*%
X156440000Y-100000000D03*
X156440000Y-93500000D03*
X160940000Y-100000000D03*
X160940000Y-93500000D03*
%TD*%
D10*
%TO.C,D2*%
X158758888Y-72380000D03*
D11*
X158758888Y-82540000D03*
%TD*%
D15*
%TO.C,J3*%
X186100183Y-46235172D03*
D16*
X186100183Y-48775172D03*
X186100183Y-51315172D03*
X186100183Y-53855172D03*
%TD*%
D14*
%TO.C,SW2*%
X160160000Y-120000000D03*
X160160000Y-113500000D03*
X164660000Y-120000000D03*
X164660000Y-113500000D03*
%TD*%
%TO.C,SW11*%
X186830000Y-100000000D03*
X186830000Y-93500000D03*
X191330000Y-93500000D03*
X191330000Y-100000000D03*
%TD*%
D10*
%TO.C,D4*%
X177950000Y-72380000D03*
D11*
X177950000Y-82540000D03*
%TD*%
D17*
%TO.C,*%
X225702000Y-106558000D03*
%TD*%
D18*
%TO.C,U1*%
X155780000Y-35325000D03*
D19*
X153240000Y-35325000D03*
X150700000Y-35325000D03*
X148160000Y-35325000D03*
X145620000Y-35325000D03*
X143080000Y-35325000D03*
X140540000Y-35325000D03*
X138000000Y-35325000D03*
X138000000Y-58185000D03*
X140540000Y-58185000D03*
X143080000Y-58185000D03*
X145620000Y-58185000D03*
X148160000Y-58185000D03*
X150700000Y-58185000D03*
X153240000Y-58185000D03*
X155780000Y-58185000D03*
%TD*%
D20*
%TO.C,J1*%
X190500000Y-36576000D03*
D21*
X193000000Y-36576000D03*
%TD*%
D12*
%TO.C,R4*%
X167773099Y-35976666D03*
D13*
X177933099Y-35976666D03*
%TD*%
D17*
%TO.C,*%
X225702000Y-35916000D03*
%TD*%
D14*
%TO.C,SW4*%
X180480000Y-120000000D03*
X180480000Y-113500000D03*
X184980000Y-113500000D03*
X184980000Y-120000000D03*
%TD*%
D17*
%TO.C,*%
X133380000Y-117652000D03*
%TD*%
%TO.C,*%
X134650000Y-39932000D03*
%TD*%
D14*
%TO.C,SW6*%
X200800000Y-113500000D03*
X200800000Y-120000000D03*
X205300000Y-120000000D03*
X205300000Y-113500000D03*
%TD*%
D12*
%TO.C,R2*%
X167773099Y-51305554D03*
D13*
X177933099Y-51305554D03*
%TD*%
D14*
%TO.C,SW14*%
X134060000Y-110590000D03*
X140560000Y-110590000D03*
X134060000Y-106090000D03*
X140560000Y-106090000D03*
%TD*%
D12*
%TO.C,R3*%
X167773099Y-43641110D03*
D13*
X177933099Y-43641110D03*
%TD*%
D14*
%TO.C,SW7*%
X210960000Y-120000000D03*
X210960000Y-113500000D03*
X215460000Y-113500000D03*
X215460000Y-120000000D03*
%TD*%
D17*
%TO.C,REF\u002A\u002A*%
X151940000Y-64000000D03*
%TD*%
D14*
%TO.C,SW8*%
X221120000Y-113500000D03*
X221120000Y-120000000D03*
X225620000Y-120000000D03*
X225620000Y-113500000D03*
%TD*%
%TO.C,SW3*%
X170320000Y-120000000D03*
X170320000Y-113500000D03*
X174820000Y-120000000D03*
X174820000Y-113500000D03*
%TD*%
%TO.C,SW16*%
X134060000Y-80590000D03*
X140560000Y-80590000D03*
X140560000Y-76090000D03*
X134060000Y-76090000D03*
%TD*%
%TO.C,SW12*%
X196640000Y-100000000D03*
X196640000Y-93500000D03*
X201140000Y-93500000D03*
X201140000Y-100000000D03*
%TD*%
D10*
%TO.C,D3*%
X168354444Y-72380000D03*
D11*
X168354444Y-82540000D03*
%TD*%
D14*
%TO.C,SW5*%
X190640000Y-120000000D03*
X190640000Y-113500000D03*
X195140000Y-113500000D03*
X195140000Y-120000000D03*
%TD*%
%TO.C,SW10*%
X167450000Y-93500000D03*
X167450000Y-100000000D03*
X171950000Y-100000000D03*
X171950000Y-93500000D03*
%TD*%
%TO.C,SW13*%
X206450000Y-100000000D03*
X206450000Y-93500000D03*
X210950000Y-100000000D03*
X210950000Y-93500000D03*
%TD*%
%TO.C,SW15*%
X134060000Y-95590000D03*
X140560000Y-95590000D03*
X140560000Y-91090000D03*
X134060000Y-91090000D03*
%TD*%
D17*
%TO.C,REF\u002A\u002A*%
X224820000Y-64000000D03*
%TD*%
D15*
%TO.C,J2*%
X189770000Y-57550000D03*
D16*
X192310000Y-57550000D03*
X194850000Y-57550000D03*
X197390000Y-57550000D03*
%TD*%
D18*
%TO.C,BZ1*%
X208370000Y-46050000D03*
D14*
X213370000Y-46050000D03*
%TD*%
%TO.C,SW1*%
X150000000Y-113500000D03*
X150000000Y-120000000D03*
X154500000Y-113500000D03*
X154500000Y-120000000D03*
%TD*%
M02*
